<svg width="30" height="10" viewBox="0 0 30 10" fill="none" xmlns="http://www.w3.org/2000/svg">
<path d="M3.07998 6.446H1.89198V6.27C1.89198 5.91066 1.94698 5.60633 2.05698 5.357C2.16698 5.10033 2.30631 4.87666 2.47498 4.686C2.64364 4.49533 2.82698 4.31933 3.02498 4.158C3.22298 3.99666 3.40631 3.83533 3.57498 3.674C3.74364 3.50533 3.88298 3.31833 3.99298 3.113C4.10298 2.90766 4.15798 2.662 4.15798 2.376C4.15798 2.14133 4.09931 1.936 3.98198 1.76C3.87198 1.584 3.71431 1.44466 3.50898 1.342C3.31098 1.232 3.08364 1.177 2.82698 1.177C2.39431 1.177 2.03864 1.30166 1.75998 1.551C1.48864 1.80033 1.30531 2.16333 1.20998 2.64H-2.29105e-05C0.102644 1.782 0.40331 1.12933 0.901977 0.681998C1.40064 0.227331 2.04598 -2.563e-06 2.83798 -2.563e-06C3.34398 -2.563e-06 3.78764 0.106331 4.16898 0.318997C4.55764 0.524331 4.86198 0.806664 5.08198 1.166C5.30198 1.518 5.41198 1.92133 5.41198 2.376C5.41198 2.76466 5.35331 3.09466 5.23598 3.366C5.12598 3.63733 4.98298 3.872 4.80698 4.07C4.63098 4.26066 4.44398 4.43666 4.24598 4.598C4.04798 4.752 3.86098 4.90966 3.68498 5.071C3.50898 5.225 3.36231 5.40466 3.24498 5.61C3.13498 5.808 3.07998 6.05 3.07998 6.336V6.446ZM2.50798 9.042C2.20731 9.042 1.97264 8.96866 1.80398 8.822C1.64264 8.668 1.56198 8.45533 1.56198 8.184C1.56198 7.90533 1.64264 7.689 1.80398 7.535C1.97264 7.381 2.20731 7.304 2.50798 7.304C2.81598 7.304 3.05064 7.381 3.21198 7.535C3.38064 7.689 3.46498 7.90533 3.46498 8.184C3.46498 8.45533 3.38064 8.668 3.21198 8.822C3.05064 8.96866 2.81598 9.042 2.50798 9.042ZM10.7821 6.446H9.59413V6.27C9.59413 5.91066 9.64913 5.60633 9.75913 5.357C9.86913 5.10033 10.0085 4.87666 10.1771 4.686C10.3458 4.49533 10.5291 4.31933 10.7271 4.158C10.9251 3.99666 11.1085 3.83533 11.2771 3.674C11.4458 3.50533 11.5851 3.31833 11.6951 3.113C11.8051 2.90766 11.8601 2.662 11.8601 2.376C11.8601 2.14133 11.8015 1.936 11.6841 1.76C11.5741 1.584 11.4165 1.44466 11.2111 1.342C11.0131 1.232 10.7858 1.177 10.5291 1.177C10.0965 1.177 9.74079 1.30166 9.46213 1.551C9.19079 1.80033 9.00746 2.16333 8.91213 2.64H7.70213C7.80479 1.782 8.10546 1.12933 8.60413 0.681998C9.10279 0.227331 9.74813 -2.563e-06 10.5401 -2.563e-06C11.0461 -2.563e-06 11.4898 0.106331 11.8711 0.318997C12.2598 0.524331 12.5641 0.806664 12.7841 1.166C13.0041 1.518 13.1141 1.92133 13.1141 2.376C13.1141 2.76466 13.0555 3.09466 12.9381 3.366C12.8281 3.63733 12.6851 3.872 12.5091 4.07C12.3331 4.26066 12.1461 4.43666 11.9481 4.598C11.7501 4.752 11.5631 4.90966 11.3871 5.071C11.2111 5.225 11.0645 5.40466 10.9471 5.61C10.8371 5.808 10.7821 6.05 10.7821 6.336V6.446ZM10.2101 9.042C9.90946 9.042 9.67479 8.96866 9.50613 8.822C9.34479 8.668 9.26413 8.45533 9.26413 8.184C9.26413 7.90533 9.34479 7.689 9.50613 7.535C9.67479 7.381 9.90946 7.304 10.2101 7.304C10.5181 7.304 10.7528 7.381 10.9141 7.535C11.0828 7.689 11.1671 7.90533 11.1671 8.184C11.1671 8.45533 11.0828 8.668 10.9141 8.822C10.7528 8.96866 10.5181 9.042 10.2101 9.042ZM18.4843 6.446H17.2963V6.27C17.2963 5.91066 17.3513 5.60633 17.4613 5.357C17.5713 5.10033 17.7106 4.87666 17.8793 4.686C18.0479 4.49533 18.2313 4.31933 18.4293 4.158C18.6273 3.99666 18.8106 3.83533 18.9793 3.674C19.1479 3.50533 19.2873 3.31833 19.3973 3.113C19.5073 2.90766 19.5623 2.662 19.5623 2.376C19.5623 2.14133 19.5036 1.936 19.3863 1.76C19.2763 1.584 19.1186 1.44466 18.9133 1.342C18.7153 1.232 18.4879 1.177 18.2313 1.177C17.7986 1.177 17.4429 1.30166 17.1643 1.551C16.8929 1.80033 16.7096 2.16333 16.6143 2.64H15.4043C15.5069 1.782 15.8076 1.12933 16.3063 0.681998C16.8049 0.227331 17.4503 -2.563e-06 18.2423 -2.563e-06C18.7483 -2.563e-06 19.1919 0.106331 19.5733 0.318997C19.9619 0.524331 20.2663 0.806664 20.4863 1.166C20.7063 1.518 20.8163 1.92133 20.8163 2.376C20.8163 2.76466 20.7576 3.09466 20.6403 3.366C20.5303 3.63733 20.3873 3.872 20.2113 4.07C20.0353 4.26066 19.8483 4.43666 19.6503 4.598C19.4523 4.752 19.2653 4.90966 19.0893 5.071C18.9133 5.225 18.7666 5.40466 18.6493 5.61C18.5393 5.808 18.4843 6.05 18.4843 6.336V6.446ZM17.9123 9.042C17.6116 9.042 17.3769 8.96866 17.2083 8.822C17.0469 8.668 16.9663 8.45533 16.9663 8.184C16.9663 7.90533 17.0469 7.689 17.2083 7.535C17.3769 7.381 17.6116 7.304 17.9123 7.304C18.2203 7.304 18.4549 7.381 18.6163 7.535C18.7849 7.689 18.8693 7.90533 18.8693 8.184C18.8693 8.45533 18.7849 8.668 18.6163 8.822C18.4549 8.96866 18.2203 9.042 17.9123 9.042ZM27.8144 0.175998V5.247H29.1234V6.424H27.8144V8.976H26.5604V6.424H22.6004V4.741L25.6144 0.175998H27.8144ZM23.6894 5.126V5.247H26.5604V0.296998H26.9014L23.6894 5.126Z" fill="black"/>
</svg>
