<svg width="1791" height="524" viewBox="0 0 1791 524" fill="none" xmlns="http://www.w3.org/2000/svg">
<g id="floor6 matmeh">
<rect width="1791" height="524" fill="white"/>
<path id="Vector 214" d="M1461.87 70.8646H1505.63V176.702H1490.37" stroke="black" stroke-width="6.10602"/>
<path id="Vector 216" d="M1438.46 192.985H1415.06V70.8646H1460.85V175.685H1438.46" stroke="black" stroke-width="6.10602"/>
<path id="Vector 217" d="M979.723 192.404H851.497" stroke="black" stroke-width="6.10602"/>
<path id="Vector 218" d="M865.515 171.615H849.232" stroke="black" stroke-width="6.10602"/>
<path id="Vector 219" d="M902.151 171.615H885.868" stroke="black" stroke-width="6.10602"/>
<path id="Vector 220" d="M900.117 167.543V196.038" stroke="black" stroke-width="6.10602"/>
<path id="Vector 221" d="M900.119 71.8811H851.271" stroke="black" stroke-width="6.10602"/>
<path id="Vector 222" d="M615.091 225.126H619.325V348.223H541.416V225.126H594.394" stroke="black" stroke-width="6.10602"/>
<path id="Vector 223" d="M506.899 224.532H541.898V348.688H452.343V224.532H487.658" stroke="black" stroke-width="6.10602"/>
<path id="Vector 224" d="M487.658 172.631H503.227V71.8818H452.343V172.631H468.181" stroke="black" stroke-width="6.10602"/>
<path id="Vector 225" d="M615.172 194.005L633.49 194.005V71.8843H543.936V194.005L595.837 194.005" stroke="black" stroke-width="6.10602"/>
<path id="Vector 226" d="M543.935 194.005V71.8843H503.228V172.634H524.599" stroke="black" stroke-width="6.10602"/>
<path id="Vector 227" d="M703.107 194.005L721.009 194.005V71.8843H633.489V194.005L683.211 194.005" stroke="black" stroke-width="6.10602"/>
<path id="Vector 253" d="M787.54 192.404L804.751 192.404V70.8646H720.608V192.404L767.354 192.404" stroke="black" stroke-width="6.10602"/>
<path id="Vector 232" d="M1039.54 192.403H1091.44V71.8811H900.117V171.798H982.548V192.403H1019.78" stroke="black" stroke-width="6.10602"/>
<path id="Vector 233" d="M1556.58 168.561H1539.22V192.985H1506.65V70.8646H1617.58V168.561H1595.53" stroke="black" stroke-width="6.10602"/>
<path id="Vector 234" d="M1641.5 168.561L1617.57 168.561V70.8646H1688.81V168.561L1660.98 168.561" stroke="black" stroke-width="6.10602"/>
<path id="Vector 280" d="M1719.41 169.031L1688.25 169.031V70.8646H1764.6V169.031L1742.29 169.031" stroke="black" stroke-width="6.10602"/>
<path id="Vector 235" d="M1655.52 226.684H1646.18V348.223H1685.13V226.684H1675.78" stroke="black" stroke-width="6.10602"/>
<path id="Vector 283" d="M1616.57 226.684H1607.22V348.223H1646.18V226.684H1636.83" stroke="black" stroke-width="6.10602"/>
<path id="Vector 284" d="M1577.62 226.684H1568.27V348.223H1607.22V226.684H1597.87" stroke="black" stroke-width="6.10602"/>
<path id="Vector 285" d="M1538.66 226.684H1529.31V348.223H1568.27V226.684H1558.92" stroke="black" stroke-width="6.10602"/>
<path id="Vector 286" d="M1353.23 226.684H1343.89V348.223H1382.84V226.684H1373.49" stroke="black" stroke-width="6.10602"/>
<path id="Vector 287" d="M1158.46 226.684H1146V348.223H1191.18V226.684H1177.94" stroke="black" stroke-width="6.10602"/>
<path id="Vector 255" d="M1115.61 192.404H1091.46V70.8646H1156.9V192.404H1134.31" stroke="black" stroke-width="6.10602"/>
<path id="Vector 256" d="M1156.9 70.8646V192.404H1181.83V70.8646H1156.9Z" stroke="black" stroke-width="6.10602"/>
<path id="Vector 257" d="M1181.83 70.8646V192.404H1206.76V70.8646H1181.83Z" stroke="black" stroke-width="6.10602"/>
<path id="Vector 258" d="M1206.76 70.8646V192.404H1231.7V70.8646H1206.76Z" stroke="black" stroke-width="6.10602"/>
<path id="Vector 254" d="M840.589 192.404H854.613V70.8646H804.75V192.404H820.332" stroke="black" stroke-width="6.10602"/>
<path id="Vector 241" d="M837.473 225.126H851.496V349.002H804.75V225.126H817.216" stroke="black" stroke-width="6.10602"/>
<path id="Vector 264" d="M676.979 225.126H619.325V348.223H728.399V225.126H697.235" stroke="black" stroke-width="6.10602"/>
<path id="Vector 242" d="M1002.91 249.975H1063.97V348.689H979.5V223.516" stroke="black" stroke-width="6.10602"/>
<path id="Vector 243" d="M926.29 224.532H979.498V348.688H851.271V224.532H906.033" stroke="black" stroke-width="6.10602"/>
<path id="Vector 263" d="M776.703 225.126H804.75V349.002H728.399V225.126H756.446" stroke="black" stroke-width="6.10602"/>
<path id="Vector 244" d="M1458.99 226.684H1527.75V348.223H1382.84V226.684H1440.51" stroke="black" stroke-width="6.10602"/>
<path id="Vector 261" d="M1275.33 226.684H1343.89V348.223H1191.18V226.684H1255.85" stroke="black" stroke-width="6.10602"/>
<path id="Vector 262" d="M1114.83 226.684H1146V348.223H1066.53V226.684H1095.35" stroke="black" stroke-width="6.10602"/>
<path id="Vector 246" d="M1766.16 169.031H1742.78V212.66V256.29H1766.16V169.031Z" stroke="black" stroke-width="6.10602"/>
<path id="Vector 247" d="M1766.16 226.684V348.223H1685.13V226.684H1720.19" stroke="black" stroke-width="6.10602"/>
<path id="Vector 250" d="M1248.51 192.404H1231.7V70.8646H1415.56V180.25H1358.1V192.404H1268.31" stroke="black" stroke-width="6.10602"/>
<path id="Vector 251" d="M451.321 201.754V348.69L107.349 486.075V284.577L451.321 145.156V183.055" stroke="black" stroke-width="6.10602"/>
<path id="Vector 252" d="M14.7458 300.857H107.354V488.108H14.7458V300.857Z" stroke="black" stroke-width="6.10602"/>
<path id="Vector 268" d="M142.518 336.537L259.382 291.349" stroke="black" stroke-width="4.67458"/>
<path id="Vector 266" d="M367.677 382.504L315.477 269.534M315.477 269.534L348.2 257.069M315.477 269.534L282.755 283.558" stroke="black" stroke-width="4.67458"/>
<path id="Vector 267" d="M447.145 349.781L394.945 238.371M394.945 238.371L367.677 250.836M394.945 238.371L453.378 211.881" stroke="black" stroke-width="4.67458"/>
<path id="Vector 265" d="M109.796 350.561L143.297 337.316L193.938 449.506" stroke="black" stroke-width="4.67458"/>
<path id="graph floor6 matmeh" d="M1729 208V170.5V113M1729 208V227V299.5M1729 208H1665.5M1665.5 208V227V283V299.5M1665.5 208H1652.5M1665.5 208H1627M1652.5 208V170.5V113M1652.5 208H1627M1627 208V227V283V299.5M1627 208H1587M1587 208V227V299.5M1587 208H1575.5M1575.5 208V170.5L1530.5 126.5M1575.5 208H1548M1548 208V227V299.5M1548 208H1476.5M1476.5 208V175.5V129.5M1476.5 208H1449.5M1449.5 208V185H1428V133M1449.5 208V227V299.5M1449.5 208H1363M1363 208V227V292M1363 208H1265M1265 208V227V299.5M1265 208H1256M1256 208V192L1322 122M1256 208H1220M1168 208V227V292M1168 208H1124.5M1168 208V192V136M1168 208H1193.5M1124.5 208V192V122M1124.5 208H1104.5M1193.5 208V192V136M1193.5 208H1220M1220 208V192V136M1029.5 208V192L997.5 125M1029.5 208H991.5M1029.5 208H1104.5M991.5 208V251L1018 299.5M991.5 208H916.5M916.5 208V227L918 297M916.5 208H830M830 208V192V125M830 208H826.5M826.5 208V227V286M826.5 208H777.5M777.5 208V192L767.5 125M777.5 208H767.5M767.5 208V227V299.5M767.5 208H693M693 208V192L678 121M693 208H685.5M685.5 208V227V299.5M685.5 208H606.5M606.5 208V192L588.5 121M606.5 208V227L577.5 299.5M606.5 208H532M532 208V173.5L525 125M532 208H498M498 208H477V194M498 208V227V299.5M1104.5 208V227V299.5M477 194V173.5V121M477 194H428.5L349 225.615M349 225.615L361 252.5L384.5 307.5M349 225.615L263 259.814M263 259.814L128 313.5V343.5L142.5 413M263 259.814L273.5 285.5L263 363" stroke="black"/>
<text id="lifts" transform="translate(1551.04 144.038) rotate(-90.1555)" fill="black" xml:space="preserve" style="white-space: pre" font-family="Martian Mono" font-size="11" letter-spacing="0em"><tspan x="0" y="11.4">&#x43b;&#x438;&#x444;&#x442;&#x44b;</tspan></text>
<g id="rooms_numbers">
<text id="601" fill="black" xml:space="preserve" style="white-space: pre" font-family="Martian Mono" font-size="23.3729" letter-spacing="0em"><tspan x="563.157" y="132.11">601</tspan></text>
<text id="614" fill="black" xml:space="preserve" style="white-space: pre" font-family="Martian Mono" font-size="23.3729" letter-spacing="0em"><tspan x="555.439" y="308.186">614</tspan></text>
<text id="616" fill="black" xml:space="preserve" style="white-space: pre" font-family="Martian Mono" font-size="23.3729" letter-spacing="0em"><tspan x="659" y="307.849">616</tspan></text>
<text id="612" fill="black" xml:space="preserve" style="white-space: pre" font-family="Martian Mono" font-size="23.3729" letter-spacing="0em"><tspan x="471.297" y="308.186">612</tspan></text>
<text id="602" opacity="0.5" transform="translate(139.304 440.282) rotate(-115.824)" fill="black" xml:space="preserve" style="white-space: pre" font-family="Martian Mono" font-size="23.3729" letter-spacing="0em"><tspan x="0" y="23.8492">602</tspan></text>
<text id="608" transform="translate(380.824 337.441) rotate(-115.824)" fill="black" xml:space="preserve" style="white-space: pre" font-family="Martian Mono" font-size="23.3729" letter-spacing="0em"><tspan x="0" y="23.8492">608</tspan></text>
<text id="610" transform="translate(258.78 389.639) rotate(-115.824)" fill="black" xml:space="preserve" style="white-space: pre" font-family="Martian Mono" font-size="23.3729" letter-spacing="0em"><tspan x="0" y="23.8492">610</tspan></text>
<text id="622" fill="black" xml:space="preserve" style="white-space: pre" font-family="Martian Mono" font-size="23.3729" letter-spacing="0em"><tspan x="892.01" y="308.186">622</tspan></text>
<text id="620" opacity="0.5" transform="matrix(0 -1 1 0 810.983 309.268)" fill="black" xml:space="preserve" style="white-space: pre" font-family="Martian Mono" font-size="23.3729" letter-spacing="0em"><tspan x="0" y="23.8492">620</tspan></text>
<text id="618" opacity="0.5" fill="black" xml:space="preserve" style="white-space: pre" font-family="Martian Mono" font-size="23.3729" letter-spacing="0em"><tspan x="741.644" y="308.186">618</tspan></text>
<text id="626" opacity="0.5" transform="matrix(0 -1 1 0 1153.79 313.943)" fill="black" xml:space="preserve" style="white-space: pre" font-family="Martian Mono" font-size="23.3729" letter-spacing="0em"><tspan x="0" y="23.8492">626</tspan></text>
<text id="632" opacity="0.5" fill="black" xml:space="preserve" style="white-space: pre" font-family="Martian Mono" font-size="23.3729" letter-spacing="0em"><tspan x="1421.8" y="308.186">632</tspan></text>
<text id="638" opacity="0.5" transform="matrix(0 -1 1 0 1649.29 309.268)" fill="black" xml:space="preserve" style="white-space: pre" font-family="Martian Mono" font-size="23.3729" letter-spacing="0em"><tspan x="0" y="23.8492">638</tspan></text>
<text id="636" opacity="0.5" transform="matrix(0 -1 1 0 1610.34 309.268)" fill="black" xml:space="preserve" style="white-space: pre" font-family="Martian Mono" font-size="23.3729" letter-spacing="0em"><tspan x="0" y="23.8492">636</tspan></text>
<text id="642" opacity="0.5" transform="matrix(0 -1 1 0 1571.38 309.268)" fill="black" xml:space="preserve" style="white-space: pre" font-family="Martian Mono" font-size="23.3729" letter-spacing="0em"><tspan x="0" y="23.8492">642</tspan></text>
<text id="632a" opacity="0.5" transform="matrix(0 -1 1 0 1532.43 317.059)" fill="black" xml:space="preserve" style="white-space: pre" font-family="Martian Mono" font-size="23.3729" letter-spacing="0em"><tspan x="0" y="23.8492">632&#x430;</tspan></text>
<text id="640" opacity="0.5" fill="black" xml:space="preserve" style="white-space: pre" font-family="Martian Mono" font-size="23.3729" letter-spacing="0em"><tspan x="1700.71" y="308.186">640</tspan></text>
<text id="622a" opacity="0.5" fill="black" xml:space="preserve" style="white-space: pre" font-family="Martian Mono" font-size="23.3729" letter-spacing="0em"><tspan x="988.776" y="308.186">622&#x430;</tspan></text>
<text id="624" opacity="0.5" fill="black" xml:space="preserve" style="white-space: pre" font-family="Martian Mono" font-size="23.3729" letter-spacing="0em"><tspan x="1082.11" y="308.186">624</tspan></text>
<text id="628" fill="black" xml:space="preserve" style="white-space: pre" font-family="Martian Mono" font-size="23.3729" letter-spacing="0em"><tspan x="1242.6" y="308.186">628</tspan></text>
<text id="630" opacity="0.5" transform="matrix(0 -1 1 0 1347 313.943)" fill="black" xml:space="preserve" style="white-space: pre" font-family="Martian Mono" font-size="23.3729" letter-spacing="0em"><tspan x="0" y="23.8492">630</tspan></text>
<text id="605" fill="black" xml:space="preserve" style="white-space: pre" font-family="Martian Mono" font-size="23.3729" letter-spacing="0em"><tspan x="650.404" y="132.11">605</tspan></text>
<text id="607" opacity="0.5" fill="black" xml:space="preserve" style="white-space: pre" font-family="Martian Mono" font-size="23.3729" letter-spacing="0em"><tspan x="742.423" y="132.11">607</tspan></text>
<text id="609" opacity="0.5" transform="matrix(0 -1 1 0 814.1 153.449)" fill="black" xml:space="preserve" style="white-space: pre" font-family="Martian Mono" font-size="23.3729" letter-spacing="0em"><tspan x="0" y="23.8492">609</tspan></text>
<text id="615" opacity="0.5" transform="matrix(0 -1 1 0 1158.46 153.449)" fill="black" xml:space="preserve" style="white-space: pre" font-family="Martian Mono" font-size="15.5819" letter-spacing="0em"><tspan x="0" y="15.7328">615</tspan></text>
<text id="617" opacity="0.5" transform="matrix(0 -1 1 0 1183.39 153.449)" fill="black" xml:space="preserve" style="white-space: pre" font-family="Martian Mono" font-size="15.5819" letter-spacing="0em"><tspan x="0" y="15.7328">617</tspan></text>
<text id="619" opacity="0.5" transform="matrix(0 -1 1 0 1208.32 153.449)" fill="black" xml:space="preserve" style="white-space: pre" font-family="Martian Mono" font-size="15.5819" letter-spacing="0em"><tspan x="0" y="15.7328">619</tspan></text>
<text id="611" opacity="0.5" fill="black" xml:space="preserve" style="white-space: pre" font-family="Martian Mono" font-size="23.3729" letter-spacing="0em"><tspan x="970.619" y="132.11">611</tspan></text>
<text id="613" opacity="0.5" fill="black" xml:space="preserve" style="white-space: pre" font-family="Martian Mono" font-size="23.3729" letter-spacing="0em"><tspan x="1099.25" y="132.11">613</tspan></text>
<text id="621" opacity="0.5" fill="black" xml:space="preserve" style="white-space: pre" font-family="Martian Mono" font-size="23.3729" letter-spacing="0em"><tspan x="1299.29" y="132.11">621</tspan></text>
<text id="625" fill="black" xml:space="preserve" style="white-space: pre" font-family="Martian Mono" font-size="23.3729" letter-spacing="0em"><tspan x="1703.38" y="121.203">625</tspan></text>
<text id="623" fill="black" xml:space="preserve" style="white-space: pre" font-family="Martian Mono" font-size="23.3729" letter-spacing="0em"><tspan x="1625" y="121.849">623</tspan></text>
<g id="lift">
<rect id="Rectangle 60" x="1548.09" y="125" width="34.0569" height="21" transform="rotate(179.845 1548.09 125)" fill="black"/>
<rect id="Rectangle 59" x="1548.09" y="149.092" width="34.0569" height="21" transform="rotate(179.845 1548.09 149.092)" fill="black"/>
</g>
<text id="???1" fill="black" xml:space="preserve" style="white-space: pre" font-family="Martian Mono" font-size="11" letter-spacing="0em"><tspan x="1468" y="134.4">???1</tspan></text>
<text id="???3" fill="black" xml:space="preserve" style="white-space: pre" font-family="Martian Mono" font-size="11" letter-spacing="0em"><tspan x="509" y="130.4">???3</tspan></text>
<text id="???4" fill="black" xml:space="preserve" style="white-space: pre" font-family="Martian Mono" font-size="11" letter-spacing="0em"><tspan x="462" y="127.4">???4</tspan></text>
<text id="???2" fill="black" xml:space="preserve" style="white-space: pre" font-family="Martian Mono" font-size="11" letter-spacing="0em"><tspan x="1423" y="134.4">???2</tspan></text>
</g>
</g>
</svg>
