<svg width="1787" height="522" viewBox="0 0 1787 522" fill="none" xmlns="http://www.w3.org/2000/svg">
<g id="floor5 matmeh">
<rect width="1787" height="522" fill="white"/>
<path id="Vector 205" d="M1459.43 75.5154H1503.19V181.353H1487.92" stroke="black" stroke-width="6.10602"/>
<path id="Vector 204" d="M1436.02 197.636H1412.62V75.5154H1458.41V180.335M1458.41 180.335H1436.02M1458.41 180.335H1466.1" stroke="black" stroke-width="6.10602"/>
<path id="Vector 197" d="M977.056 198.655L895 198" stroke="black" stroke-width="6.10602"/>
<path id="Vector 199" d="M863.073 176.266H846.791" stroke="black" stroke-width="6.10602"/>
<path id="Vector 200" d="M899.709 176.266H883.426" stroke="black" stroke-width="6.10602"/>
<path id="Vector 201" d="M897.675 172.194V200.688" stroke="black" stroke-width="6.10602"/>
<path id="Vector 198" d="M897.677 76.532H848.829" stroke="black" stroke-width="6.10602"/>
<path id="Vector 191" d="M706.48 229.183H726.706V353.339H539.455V229.183H687.002" stroke="black" stroke-width="6.10602"/>
<path id="Vector 192" d="M504.458 229.183H539.456V353.339H449.901V229.183H483.87" stroke="black" stroke-width="6.10602"/>
<path id="Vector 207" d="M482.879 177.282H500.785V76.5327H449.901V177.282H462.623" stroke="black" stroke-width="6.10602"/>
<path id="Vector 193" d="M612.731 198.655L631.049 198.655V76.535H541.494V198.655L593.395 198.655" stroke="black" stroke-width="6.10602"/>
<path id="Vector 206" d="M541.493 198.655V76.535H500.786V177.284H522.157" stroke="black" stroke-width="6.10602"/>
<path id="Vector 194" d="M700.665 198.655L718.567 198.655V76.535H631.047V198.655L680.77 198.655" stroke="black" stroke-width="6.10602"/>
<path id="Vector 195" d="M745.212 198.655L718.567 198.655V76.535H848.829V198.655L765.691 198.655" stroke="black" stroke-width="6.10602"/>
<path id="Vector 196" d="M1029.81 198.652H1089V76.532H897.675V176.449H980.107V198.652H1009.55" stroke="black" stroke-width="6.10602"/>
<path id="Vector 175" d="M1504.21 197.636V75.5154H1615.13V173.212H1536.77" stroke="black" stroke-width="6.10602"/>
<path id="Vector 180" d="M1607.12 231.219H1567.3V353.34H1662.96V231.219H1626.59" stroke="black" stroke-width="6.10602"/>
<path id="Vector 181" d="M1511.29 231.219H1471.64V353.34H1567.31V231.219H1530.76" stroke="black" stroke-width="6.10602"/>
<path id="Vector 183" d="M1347.67 231.219H1371.91V353.34H1304.74V231.219H1327.42" stroke="black" stroke-width="6.10602"/>
<path id="Vector 184" d="M1294.7 231.219H1304.74V353.34H1264.03V231.219H1274.44" stroke="black" stroke-width="6.10602"/>
<path id="Vector 185" d="M1252.63 231.219H1264.04V353.34H1223.33V231.219H1233.15" stroke="black" stroke-width="6.10602"/>
<path id="Vector 187" d="M1092.13 231.219H1103.25V353.34H1062.54V231.219H1071.87" stroke="black" stroke-width="6.10602"/>
<path id="Vector 190" d="M800.754 229.183H848.832V353.339H726.712V229.183H780.497" stroke="black" stroke-width="6.10602"/>
<path id="Vector 188" d="M1000.46 254.626H1061.52V353.34H977.058V228.167" stroke="black" stroke-width="6.10602"/>
<path id="Vector 189" d="M924.553 229.183H977.055V353.339H848.829V229.183H903.591" stroke="black" stroke-width="6.10602"/>
<path id="Vector 182" d="M1430.26 231.219H1471.65V353.34H1371.91V231.219H1409.57" stroke="black" stroke-width="6.10602"/>
<path id="Vector 178" d="M1726.32 175.24V231.335H1762.94V175.24H1726.32Z" stroke="black" stroke-width="6.10602"/>
<path id="Vector 179" d="M1763.71 231.219V353.34H1663.98V231.219H1702.94" stroke="black" stroke-width="6.10602"/>
<path id="Vector 186" d="M1126.65 231.219H1223.33V353.34H1102.22V231.219" stroke="black" stroke-width="6.10602"/>
<path id="Vector 202" d="M1100.71 197.636H1087.98V75.5154H1168.38M1119.53 197.636H1168.38M1168.38 197.636H1235.54V75.5154H1168.38M1168.38 197.636V147.77M1168.38 75.5154V129.452" stroke="black" stroke-width="6.10602"/>
<path id="Vector 203" d="M1251.07 197.636H1233.51V75.5154H1412.62V185.424H1356.65V197.636H1271.33" stroke="black" stroke-width="6.10602"/>
<path id="Vector 208" d="M104.907 289.227L448.88 149.807V353.341L104.907 490.726V289.227Z" stroke="black" stroke-width="6.10602"/>
<path id="Vector 209" d="M12.3037 305.507H104.912V492.759H12.3037V305.507Z" stroke="black" stroke-width="6.10602"/>
<text id="5 &#208;&#173;&#208;&#162;&#208;&#144;&#208;&#150;" transform="translate(96.4463 203.105) rotate(-22.2192)" fill="black" xml:space="preserve" style="white-space: pre" font-family="Martian Mono" font-size="59.4845" letter-spacing="0em"><tspan x="0" y="60.7938">5 &#x42d;&#x422;&#x410;&#x416;</tspan></text>
<path id="Vector 281" d="M1642.18 174.77L1615.69 174.77V77.0736H1686.92V174.77L1662.43 174.77" stroke="black" stroke-width="6.10602"/>
<path id="Vector 282" d="M1702.95 175.24L1686.37 175.24V77.0736H1762.72V175.24L1740.4 175.24" stroke="black" stroke-width="6.10602"/>
<path id="graph floor 5" d="M1711 211.5H1651M1711 211.5V174.5V124.5M1711 211.5V230L1696.5 306M599.5 211.5H470V178L463 83.5M599.5 211.5V198.5L584.5 130.5M599.5 211.5H696M696 211.5V231.5L627.5 304M696 211.5H755M696 211.5L690 200.5L655.5 128M1448 211.5V192M1448 211.5H1419M1448 211.5H1476M755 211.5V200.5L765 128M755 211.5H873.5M913 211.5V230L897.5 304M913 211.5H988M913 211.5H873.5M988 211.5V255L994 304M988 211.5H1018M1081.5 211.5V230V319.5M1081.5 211.5H1109.5M1081.5 211.5H1018M1117 211.5V230L1145 304M1117 211.5H1109.5M1117 211.5H1242M1109.5 211.5V197.5V126.5M1018 211.5V197.5L976 126.5M1262.5 211.5V197.5L1305 127M1262.5 211.5H1242M1262.5 211.5H1286M1242 211.5V230V319.5M1286 211.5V230V319.5M1286 211.5H1337.5M1337.5 211.5V230V319.5M1337.5 211.5H1419M1419 211.5V230L1403 306M1520.5 211.5V230L1498.5 306M1520.5 211.5H1615.75M1520.5 211.5V174.5L1553.5 124.5M1520.5 211.5H1476M1615.75 211.5V230L1598 306M1615.75 211.5H1651M1651 211.5V174.5L1634 124.5M1476 211.5V180.5L1469 83.5M873.5 211.5V176.5L861.5 85" stroke="#FF0000" stroke-width="3"/>
<rect id="Rectangle 60" x="1543.11" y="124" width="34.0569" height="21" transform="rotate(179.845 1543.11 124)" fill="black"/>
<rect id="Rectangle 59" x="1543.11" y="148.092" width="34.0569" height="21" transform="rotate(179.845 1543.11 148.092)" fill="black"/>
<g id="room_ids">
<text id="501" opacity="0.5" fill="black" xml:space="preserve" style="white-space: pre" font-family="Martian Mono" font-size="23.3729" letter-spacing="0em"><tspan x="560.716" y="136.761">501</tspan></text>
<text id="514" opacity="0.5" fill="black" xml:space="preserve" style="white-space: pre" font-family="Martian Mono" font-size="23.3729" letter-spacing="0em"><tspan x="602.129" y="312.837">514</tspan></text>
<text id="522" opacity="0.5" fill="black" xml:space="preserve" style="white-space: pre" font-family="Martian Mono" font-size="23.3729" letter-spacing="0em"><tspan x="889.567" y="312.837">522</tspan></text>
<text id="526" opacity="0.5" fill="black" xml:space="preserve" style="white-space: pre" font-family="Martian Mono" font-size="23.3729" letter-spacing="0em"><tspan x="1137.48" y="312.837">526</tspan></text>
<text id="532" fill="black" xml:space="preserve" style="white-space: pre" font-family="Martian Mono" font-size="23.3729" letter-spacing="0em"><tspan x="1395.43" y="312.837">532</tspan></text>
<text id="534" fill="black" xml:space="preserve" style="white-space: pre" font-family="Martian Mono" font-size="23.3729" letter-spacing="0em"><tspan x="1492" y="312.849">534</tspan></text>
<text id="538" opacity="0.5" fill="black" xml:space="preserve" style="white-space: pre" font-family="Martian Mono" font-size="23.3729" letter-spacing="0em"><tspan x="1589.31" y="312.837">538</tspan></text>
<text id="540" opacity="0.5" fill="black" xml:space="preserve" style="white-space: pre" font-family="Martian Mono" font-size="23.3729" letter-spacing="0em"><tspan x="1689.45" y="312.837">540</tspan></text>
<text id="524a" opacity="0.5" fill="black" xml:space="preserve" style="white-space: pre" font-family="Martian Mono" font-size="23.3729" letter-spacing="0em"><tspan x="986.334" y="312.837">524&#x430;</tspan></text>
<text id="524" opacity="0.5" transform="matrix(0 -1 1 0 1066.92 328.533)" fill="black" xml:space="preserve" style="white-space: pre" font-family="Martian Mono" font-size="23.3729" letter-spacing="0em"><tspan x="0" y="23.8492">524</tspan></text>
<text id="528" opacity="0.5" transform="matrix(0 -1 1 0 1227.94 328.533)" fill="black" xml:space="preserve" style="white-space: pre" font-family="Martian Mono" font-size="23.3729" letter-spacing="0em"><tspan x="0" y="23.8492">528</tspan></text>
<text id="530a" opacity="0.5" transform="matrix(0 -1 1 0 1270.66 328.533)" fill="black" xml:space="preserve" style="white-space: pre" font-family="Martian Mono" font-size="23.3729" letter-spacing="0em"><tspan x="0" y="23.8492">530&#x430;</tspan></text>
<text id="530" opacity="0.5" transform="matrix(0 -1 1 0 1321 328)" fill="black" xml:space="preserve" style="white-space: pre" font-family="Martian Mono" font-size="23.3729" letter-spacing="0em"><tspan x="0" y="23.8492">530</tspan></text>
<text id="505" opacity="0.5" fill="black" xml:space="preserve" style="white-space: pre" font-family="Martian Mono" font-size="23.3729" letter-spacing="0em"><tspan x="647.962" y="136.761">505</tspan></text>
<text id="507" opacity="0.5" fill="black" xml:space="preserve" style="white-space: pre" font-family="Martian Mono" font-size="23.3729" letter-spacing="0em"><tspan x="757.961" y="136.761">507</tspan></text>
<text id="509" fill="black" xml:space="preserve" style="white-space: pre" font-family="Martian Mono" font-size="23.3729" letter-spacing="0em"><tspan x="968.178" y="136.761">509</tspan></text>
<text id="511" opacity="0.5" fill="black" xml:space="preserve" style="white-space: pre" font-family="Martian Mono" font-size="23.3729" letter-spacing="0em"><tspan x="1103.07" y="136.761">511</tspan></text>
<text id="513" fill="black" xml:space="preserve" style="white-space: pre" font-family="Martian Mono" font-size="23.3729" letter-spacing="0em"><tspan x="1296.85" y="136.761">513</tspan></text>
<text id="515" fill="black" xml:space="preserve" style="white-space: pre" font-family="Martian Mono" font-size="23.3729" letter-spacing="0em"><tspan x="1627.01" y="136.761">515</tspan></text>
<text id="517" fill="black" xml:space="preserve" style="white-space: pre" font-family="Martian Mono" font-size="23.3729" letter-spacing="0em"><tspan x="1700.94" y="136.761">517</tspan></text>
<text id="lifts 5" transform="translate(1546.07 143.038) rotate(-90.1555)" fill="black" xml:space="preserve" style="white-space: pre" font-family="Martian Mono" font-size="11" letter-spacing="0em"><tspan x="0" y="11.4">&#x43b;&#x438;&#x444;&#x442;&#x44b;</tspan></text>
<g id="staircases">
<g id="staircase 5 3 group">
<rect id="staircase 5 3" x="1468.44" y="84.0856" width="24.9311" height="88.8171" stroke="black" stroke-width="1.55819"/>
<path id="Vector 281_2" d="M1469.22 88.7601H1493.37" stroke="black" stroke-width="1.55819"/>
<path id="Vector 284" d="M1469.22 102.005H1493.37" stroke="black" stroke-width="1.55819"/>
<path id="Vector 287" d="M1469.22 114.47H1493.37" stroke="black" stroke-width="1.55819"/>
<path id="Vector 290" d="M1469.22 126.936H1493.37" stroke="black" stroke-width="1.55819"/>
<path id="Vector 293" d="M1469.22 139.401H1493.37" stroke="black" stroke-width="1.55819"/>
<path id="Vector 296" d="M1469.22 151.867H1493.37" stroke="black" stroke-width="1.55819"/>
<path id="Vector 282_2" d="M1469.22 92.6556H1493.37" stroke="black" stroke-width="1.55819"/>
<path id="Vector 285" d="M1469.22 105.9H1493.37" stroke="black" stroke-width="1.55819"/>
<path id="Vector 288" d="M1469.22 118.366H1493.37" stroke="black" stroke-width="1.55819"/>
<path id="Vector 291" d="M1469.22 130.831H1493.37" stroke="black" stroke-width="1.55819"/>
<path id="Vector 294" d="M1469.22 143.297H1493.37" stroke="black" stroke-width="1.55819"/>
<path id="Vector 297" d="M1469.22 155.763H1493.37" stroke="black" stroke-width="1.55819"/>
<path id="Vector 299" d="M1469.22 164.333H1493.37" stroke="black" stroke-width="1.55819"/>
<path id="Vector 283" d="M1469.22 97.3302H1493.37" stroke="black" stroke-width="1.55819"/>
<path id="Vector 286" d="M1469.22 110.575H1493.37" stroke="black" stroke-width="1.55819"/>
<path id="Vector 289" d="M1469.22 123.04H1493.37" stroke="black" stroke-width="1.55819"/>
<path id="Vector 292" d="M1469.22 135.506H1493.37" stroke="black" stroke-width="1.55819"/>
<path id="Vector 295" d="M1469.22 147.972H1493.37" stroke="black" stroke-width="1.55819"/>
<path id="Vector 298" d="M1469.22 160.437H1493.37" stroke="black" stroke-width="1.55819"/>
<path id="Vector 300" d="M1469.22 169.007H1493.37" stroke="black" stroke-width="1.55819"/>
</g>
<g id="staircase 5 1 group">
<rect id="staircase 5 1" x="461.845" y="82.5279" width="24.9311" height="88.8171" stroke="black" stroke-width="1.55819"/>
<path id="Vector 281_3" d="M462.624 87.2024H486.776" stroke="black" stroke-width="1.55819"/>
<path id="Vector 284_2" d="M462.624 100.447H486.776" stroke="black" stroke-width="1.55819"/>
<path id="Vector 287_2" d="M462.624 112.913H486.776" stroke="black" stroke-width="1.55819"/>
<path id="Vector 290_2" d="M462.624 125.378H486.776" stroke="black" stroke-width="1.55819"/>
<path id="Vector 293_2" d="M462.624 137.844H486.776" stroke="black" stroke-width="1.55819"/>
<path id="Vector 296_2" d="M462.624 150.309H486.776" stroke="black" stroke-width="1.55819"/>
<path id="Vector 282_3" d="M462.624 91.0979H486.776" stroke="black" stroke-width="1.55819"/>
<path id="Vector 285_2" d="M462.624 104.343H486.776" stroke="black" stroke-width="1.55819"/>
<path id="Vector 288_2" d="M462.624 116.808H486.776" stroke="black" stroke-width="1.55819"/>
<path id="Vector 291_2" d="M462.624 129.274H486.776" stroke="black" stroke-width="1.55819"/>
<path id="Vector 294_2" d="M462.624 141.739H486.776" stroke="black" stroke-width="1.55819"/>
<path id="Vector 297_2" d="M462.624 154.205H486.776" stroke="black" stroke-width="1.55819"/>
<path id="Vector 299_2" d="M462.624 162.775H486.776" stroke="black" stroke-width="1.55819"/>
<path id="Vector 283_2" d="M462.624 95.7725H486.776" stroke="black" stroke-width="1.55819"/>
<path id="Vector 286_2" d="M462.624 109.017H486.776" stroke="black" stroke-width="1.55819"/>
<path id="Vector 289_2" d="M462.624 121.483H486.776" stroke="black" stroke-width="1.55819"/>
<path id="Vector 292_2" d="M462.624 133.948H486.776" stroke="black" stroke-width="1.55819"/>
<path id="Vector 295_2" d="M462.624 146.414H486.776" stroke="black" stroke-width="1.55819"/>
<path id="Vector 298_2" d="M462.624 158.879H486.776" stroke="black" stroke-width="1.55819"/>
<path id="Vector 300_2" d="M462.624 167.449H486.776" stroke="black" stroke-width="1.55819"/>
</g>
<g id="staircase 5 2 group">
<rect id="staircase 5 2" x="860.742" y="84.0863" width="24.9311" height="85.7007" stroke="black" stroke-width="1.55819"/>
<path id="Vector 281_4" d="M861.521 88.761H885.673" stroke="black" stroke-width="1.55819"/>
<path id="Vector 284_3" d="M861.521 102.006H885.673" stroke="black" stroke-width="1.55819"/>
<path id="Vector 287_3" d="M861.521 114.471H885.673" stroke="black" stroke-width="1.55819"/>
<path id="Vector 290_3" d="M861.521 126.937H885.673" stroke="black" stroke-width="1.55819"/>
<path id="Vector 293_3" d="M861.521 139.402H885.673" stroke="black" stroke-width="1.55819"/>
<path id="Vector 296_3" d="M861.521 151.868H885.673" stroke="black" stroke-width="1.55819"/>
<path id="Vector 282_4" d="M861.521 92.6564H885.673" stroke="black" stroke-width="1.55819"/>
<path id="Vector 285_3" d="M861.521 105.901H885.673" stroke="black" stroke-width="1.55819"/>
<path id="Vector 288_3" d="M861.521 118.367H885.673" stroke="black" stroke-width="1.55819"/>
<path id="Vector 291_3" d="M861.521 130.832H885.673" stroke="black" stroke-width="1.55819"/>
<path id="Vector 294_3" d="M861.521 143.298H885.673" stroke="black" stroke-width="1.55819"/>
<path id="Vector 297_3" d="M861.521 155.763H885.673" stroke="black" stroke-width="1.55819"/>
<path id="Vector 299_3" d="M861.521 164.333H885.673" stroke="black" stroke-width="1.55819"/>
<path id="Vector 283_3" d="M861.521 97.3311H885.673" stroke="black" stroke-width="1.55819"/>
<path id="Vector 286_3" d="M861.521 110.576H885.673" stroke="black" stroke-width="1.55819"/>
<path id="Vector 289_3" d="M861.521 123.041H885.673" stroke="black" stroke-width="1.55819"/>
<path id="Vector 292_3" d="M861.521 135.507H885.673" stroke="black" stroke-width="1.55819"/>
<path id="Vector 295_3" d="M861.521 147.972H885.673" stroke="black" stroke-width="1.55819"/>
<path id="Vector 298_3" d="M861.521 160.438H885.673" stroke="black" stroke-width="1.55819"/>
<path id="Vector 300_3" d="M861.521 169.008H885.673" stroke="black" stroke-width="1.55819"/>
</g>
</g>
</g>
</g>
</svg>
