<svg width="853" height="687" viewBox="0 0 853 687" fill="none" xmlns="http://www.w3.org/2000/svg">
<g id="floor 1k kuibysheva">
<rect width="852.396" height="686.5" fill="white"/>
<g id="room_ids">
<text id="178" transform="translate(702.201 264.228)" fill="black" xml:space="preserve" style="white-space: pre" font-family="Martian Mono" font-size="23.3729" letter-spacing="0em"><tspan x="0" y="28.4535">178</tspan></text>
<text id="179" transform="translate(643.907 511.926)" fill="black" xml:space="preserve" style="white-space: pre" font-family="Martian Mono" font-size="23.3729" letter-spacing="0em"><tspan x="0" y="28.4535">179</tspan></text>
<text id="180" transform="translate(127.591 493.48)" fill="black" xml:space="preserve" style="white-space: pre" font-family="Martian Mono" font-size="23.3729" letter-spacing="0em"><tspan x="0" y="28.4535">180</tspan></text>
<text id="181" transform="translate(127.591 258.958)" fill="black" xml:space="preserve" style="white-space: pre" font-family="Martian Mono" font-size="23.3729" letter-spacing="0em"><tspan x="0" y="28.4535">181</tspan></text>
</g>
<g id="no_use 1">
<path id="Rectangle 218" d="M590.372 181.223H741.989H848.53V327.511V381.489H590.372V181.223Z" fill="#75D3FF" fill-opacity="0.52"/>
<path id="Rectangle 219" d="M495.199 385.442H704.807H852.099V583.701V656.855H495.199V385.442Z" fill="#75D3FF" fill-opacity="0.52"/>
<path id="Rectangle 220" d="M2.67676 389.395H217.874H369.094V587.654V660.808H2.67676L2.67676 389.395Z" fill="#75D3FF" fill-opacity="0.52"/>
<path id="Rectangle 221" d="M2.67676 185.176H178.049H301.283V328.577V381.489H2.67676L2.67676 185.176Z" fill="#75D3FF" fill-opacity="0.52"/>
<path id="Rectangle 222" d="M377.125 558.04H440.706H485.384V631.184V658.173H377.125V558.04Z" fill="#808080" fill-opacity="0.52"/>
<path id="Vector 426" d="M375.339 418.051H486.575" stroke="black" stroke-width="3"/>
<path id="Vector 427" d="M487.168 426.945H375.34" stroke="black" stroke-width="3"/>
<path id="Vector 428" d="M375.34 437.485H485.979" stroke="black" stroke-width="3"/>
<path id="Vector 429" d="M487.168 448.025H375.34" stroke="black" stroke-width="3"/>
<path id="Vector 430" d="M375.34 457.248H489.548" stroke="black" stroke-width="3"/>
<path id="Vector 431" d="M488.358 466.471H375.34" stroke="black" stroke-width="3"/>
<path id="Vector 432" d="M375.34 477.011H487.168" stroke="black" stroke-width="3"/>
<path id="Vector 433" d="M488.358 487.551H375.34" stroke="black" stroke-width="3"/>
<path id="Vector 434" d="M375.34 499.409H487.168" stroke="black" stroke-width="3"/>
<path id="Vector 435" d="M487.168 511.267H375.34" stroke="black" stroke-width="3"/>
<path id="Vector 436" d="M493.712 214.162V264.228" stroke="black" stroke-width="3"/>
<path id="Vector 437" d="M484.194 266.205V214.162" stroke="black" stroke-width="3"/>
<path id="Vector 438" d="M472.893 213.503V264.228" stroke="black" stroke-width="3"/>
<path id="Vector 439" d="M462.483 267.524V213.501" stroke="black" stroke-width="3"/>
<path id="Vector 440" d="M452.073 214.162V265.546" stroke="black" stroke-width="3"/>
<path id="Vector 441" d="M443.151 266.205V213.503" stroke="black" stroke-width="3"/>
<path id="Vector 419" d="M502.04 383.466H489.548V658.173" stroke="black" stroke-width="7"/>
<path id="Vector" d="M584.126 180.565H553.195V166.73H720.938M584.126 180.565H848.827M584.126 180.565V278.721M852.396 175.953V656.197H474.677V660.149M474.677 660.149V686.5M474.677 660.149H477.949M474.677 660.149H367.31M494.009 180.536V214.191M440.474 211.527H491.63M443.746 266.863H581.747M502.039 383.466H489.548V658.173M382.478 686.5V660.149H0L0 178.588H458.617H502.039V166.73H485.384M302.77 262.911V385.442M302.77 385.442H1.18967M302.77 385.442H314.072M585.316 336.693V381.489M585.316 381.489H553.195M585.316 381.489H850.612M489.551 557.052H463.372M375.34 557.381H407.461M300.986 181.223V209.55M373.853 655.538V385.442H360.766M485.384 166.73V152.896M485.384 166.73H464M485.384 92.9007H502.039H584.126M485.384 92.9007V106M485.384 92.9007H464M678 92.9007H635.877H584.126M720.938 166.73V152.896M720.938 166.73H753.059M720.938 110.688V102.123V91.2538H750.68V19L635.877 19H584.126V92.9007" stroke="black" stroke-width="7"/>
<path id="Vector 882" d="M404.189 557.381H466.052" stroke="#808080" stroke-width="7"/>
<rect id="Rectangle 225" x="718" y="95" width="35" height="69" fill="#D9D9D9"/>
<rect id="Rectangle 224" x="464" y="95" width="25" height="71" fill="#D9D9D9"/>
<path id="staircase 5 3" d="M613 64.6946V49.2946L673 49.2946V64.6946L630.179 64.6946H613Z" stroke="black" stroke-width="5"/>
<path id="Vector 664" d="M669.973 20.3994V51.1994" stroke="black" stroke-width="3"/>
<path id="Vector 665" d="M651.586 20.3994V51.1994" stroke="black" stroke-width="3"/>
<path id="Vector 666" d="M660.296 20.3994V51.1994" stroke="black" stroke-width="3"/>
<path id="Vector 667" d="M642.877 18.9998V51.1998" stroke="black" stroke-width="3"/>
<path id="Vector 668" d="M624.49 20.3994V51.1994" stroke="black" stroke-width="3"/>
<path id="Vector 669" d="M615.78 20.3994V51.1994" stroke="black" stroke-width="3"/>
<path id="Vector 670" d="M634.167 20.3994V51.1994" stroke="black" stroke-width="3"/>
<path id="Vector 671" d="M669.973 63.7996V95.9996" stroke="black" stroke-width="3"/>
<path id="Vector 672" d="M651.586 63.7996V95.9996" stroke="black" stroke-width="3"/>
<path id="Vector 673" d="M660.296 63.7996V95.9996" stroke="black" stroke-width="3"/>
<path id="Vector 674" d="M642.678 63.3882V94.1882" stroke="black" stroke-width="3"/>
<path id="Vector 675" d="M624.49 63.7996V95.9996" stroke="black" stroke-width="3"/>
<path id="Vector 676" d="M615.78 63.7996V95.9996" stroke="black" stroke-width="3"/>
<path id="Vector 677" d="M634.167 63.7996V95.9996" stroke="black" stroke-width="3"/>
</g>
<path id="graph floor 1" d="M129 271.5L278.5 240H346.5M346.5 240H400.5H528.5V195V130H695.5V76H656.5L232.5 20.5M346.5 240V301.75M129 509L346.5 403.5V301.75M346.5 301.75H534.5M710 279L617 301.75H534.5M534.5 301.75V403.5L648.5 527.5" stroke="#FF0000" stroke-width="3"/>
<g id="staircase">
<g id="staircase 1 kontur group">
<text id="staircase 1 kontur" fill="black" xml:space="preserve" style="white-space: pre" font-family="Martian Mono" font-size="23.3729" letter-spacing="0em"><tspan x="233" y="43.3492">&#x43f;&#x43e;&#x434;&#x44a;&#x451;&#x43c; &#x43d;&#x430; 2-&#x439; &#x44d;&#x442;&#x430;&#x436; </tspan><tspan x="233" y="72.3492">&#x43a;&#x43e;&#x43d;&#x442;&#x443;&#x440;&#x43e;&#x432;&#x441;&#x43a;&#x438;&#x445; &#x43a;&#x43b;&#x430;&#x441;&#x441;&#x43e;&#x432;</tspan></text>
</g>
</g>
</g>
</svg>
