<svg width="1791" height="524" viewBox="0 0 1791 524" fill="none" xmlns="http://www.w3.org/2000/svg">
<g id="floor6 matmeh">
<rect width="1791" height="524" fill="white"/>
<path id="Rectangle 188" d="M1347 230H1368.83H1379V258.5V345H1347V230Z" fill="#D9D9D9"/>
<path id="Rectangle 175" d="M1688 230H1739.5V258.5H1763.5V345H1688V230Z" fill="#D9D9D9"/>
<path id="Rectangle 176" d="M1649 230H1671.51H1682V258.5V345H1649V230Z" fill="#D9D9D9"/>
<path id="Rectangle 177" d="M1610 230H1632.51H1643V258.5V345H1610V230Z" fill="#D9D9D9"/>
<path id="Rectangle 178" d="M1571 230H1593.51H1604V258.5V345H1571V230Z" fill="#D9D9D9"/>
<path id="Rectangle 179" d="M1533 230H1554.83H1565V258.5V345H1533V230Z" fill="#D9D9D9"/>
<path id="Rectangle 184" d="M1210 74H1222.96H1229V102.748V190H1210V74Z" fill="#D9D9D9"/>
<path id="Rectangle 185" d="M1185 74H1197.96H1204V102.748V190H1185V74Z" fill="#D9D9D9"/>
<path id="Rectangle 183" d="M1160 74H1172.96H1179V102.748V190H1160V74Z" fill="#D9D9D9"/>
<rect id="Rectangle 108" x="506" y="75" width="35" height="91" fill="#FF3FD9"/>
<path id="Vector 214" d="M1461.87 70.8646H1505.63V176.702H1490.37" stroke="black" stroke-width="6.10602"/>
<path id="Vector 216" d="M1438.46 192.985H1415.06V70.8646H1460.85V175.685H1438.46" stroke="black" stroke-width="6.10602"/>
<path id="Vector 217" d="M979.723 192.404L900 192" stroke="black" stroke-width="6.10602"/>
<path id="Vector 218" d="M865.515 171.615H852.5" stroke="black" stroke-width="6.10602"/>
<path id="Vector 219" d="M902.151 171.615H885.868" stroke="black" stroke-width="6.10602"/>
<path id="Vector 220" d="M900.117 167.543V196.038" stroke="black" stroke-width="6.10602"/>
<path id="Vector 221" d="M900.119 71.8811H851.271" stroke="black" stroke-width="6.10602"/>
<path id="Vector 222" d="M615.091 225.126H619.325V348.223H541.416V225.126H594.394" stroke="black" stroke-width="6.10602"/>
<path id="Vector 223" d="M506.899 224.532H541.898V348.688H452.343V224.532H487.658" stroke="black" stroke-width="6.10602"/>
<path id="Vector 224" d="M487.5 169.036H503.227V71.8818H452.343V169.036L468.5 169.036" stroke="black" stroke-width="6.10602"/>
<path id="Vector 225" d="M615.172 194.005H633.49V71.8843H543.936V194.005M543.936 194.005H595.837M543.936 194.005L528.5 199.5" stroke="black" stroke-width="6.10602"/>
<path id="Vector 226" d="M543.935 194.005V71.8843H503.228V169H524" stroke="black" stroke-width="6.10602"/>
<path id="Vector 227" d="M703.107 194.005L721.009 194.005V71.8843H633.489V194.005L683.211 194.005" stroke="black" stroke-width="6.10602"/>
<path id="Vector 253" d="M787.5 194H804.751V70.8646H720.608V194H767.5" stroke="black" stroke-width="6.10602"/>
<path id="Vector 232" d="M1039.91 192H1092V71H900V171.313V192H972.64H982.723H1020.09" stroke="black" stroke-width="6.10602"/>
<path id="Vector 233" d="M1556.58 168.561H1539.22V192.985H1506.65V70.8646H1617.58V168.561H1595.53" stroke="black" stroke-width="6.10602"/>
<path id="Vector 234" d="M1641.5 168.561L1617.57 168.561V70.8646H1688.81V168.561L1660.98 168.561" stroke="black" stroke-width="6.10602"/>
<path id="Vector 280" d="M1719.41 169.031L1688.25 169.031V70.8646H1764.6V169.031L1742.29 169.031" stroke="black" stroke-width="6.10602"/>
<path id="Vector 235" d="M1655.52 226.684H1646.18V348.223H1685.13V226.684H1675.78" stroke="black" stroke-width="6.10602"/>
<path id="Vector 283" d="M1616.57 226.684H1607.22V348.223H1646.18V226.684H1636.83" stroke="black" stroke-width="6.10602"/>
<path id="Vector 284" d="M1577.62 226.684H1568.27V348.223H1607.22V226.684H1597.87" stroke="black" stroke-width="6.10602"/>
<path id="Vector 285" d="M1538.66 226.684H1529.31V348.223H1568.27V226.684H1558.92" stroke="black" stroke-width="6.10602"/>
<path id="Vector 286" d="M1353.23 226.684H1343.89V348.223H1382.84V226.684H1373.49" stroke="black" stroke-width="6.10602"/>
<path id="Vector 287" d="M1158.46 226.684H1146V348.223H1191.18V226.684H1177.94" stroke="black" stroke-width="6.10602"/>
<path id="Vector 255" d="M1115.61 192.404H1092V70.8646H1156.9V192.404H1134.31" stroke="black" stroke-width="6.10602"/>
<path id="Vector 256" d="M1156.9 70.8646V192.404H1181.83V70.8646H1156.9Z" stroke="black" stroke-width="6.10602"/>
<path id="Vector 257" d="M1181.83 70.8646V192.404H1206.76V70.8646H1181.83Z" stroke="black" stroke-width="6.10602"/>
<path id="Vector 258" d="M1206.76 70.8646V192.404H1231.7V70.8646H1206.76Z" stroke="black" stroke-width="6.10602"/>
<path id="Vector 254" d="M840.5 194H854.613V70.8646H804.75V194H820.5" stroke="black" stroke-width="6.10602"/>
<path id="Vector 241" d="M837.473 225.126H851.496V349.002H804.75V225.126H817.216" stroke="black" stroke-width="6.10602"/>
<path id="Vector 264" d="M676.979 225.126H619.325V348.223H728.399V225.126H697.235" stroke="black" stroke-width="6.10602"/>
<path id="Vector 242" d="M1002.83 250.423H1065V349H979V224" stroke="black" stroke-width="6.10602"/>
<path id="Vector 243" d="M926.29 224.532H979.498V348.688H851.271V224.532H906.033" stroke="black" stroke-width="6.10602"/>
<path id="Vector" d="M776.703 225.126H804.75V349.002H728.399V225.126H756.446" stroke="black" stroke-width="6.10602"/>
<path id="Vector 244" d="M1458.99 226.684H1527.75V348.223H1382.84V226.684H1440.51" stroke="black" stroke-width="6.10602"/>
<path id="Vector 261" d="M1275.33 226.684H1343.89V348.223H1191.18V226.684H1255.85" stroke="black" stroke-width="6.10602"/>
<path id="Vector 262" d="M1114.83 226.684H1146V348.223H1066.53V226.684H1095.35" stroke="black" stroke-width="6.10602"/>
<path id="Vector 246" d="M1766.16 169.031H1742.78V212.66V256.29H1766.16V169.031Z" stroke="black" stroke-width="6.10602"/>
<path id="Vector 247" d="M1766.16 226.684V348.223H1685.13V226.684H1720.19" stroke="black" stroke-width="6.10602"/>
<path id="Vector 250" d="M1248.51 192.404H1231V70.8646H1415.56V180.25H1358.1V192.404H1268.31" stroke="black" stroke-width="6.10602"/>
<path id="Vector 251" d="M450 214.223L449.843 351.702L93.1568 505L93.1567 282.496L450 132V200.185" stroke="black" stroke-width="6.10602"/>
<path id="Vector 252" d="M15 301H93V488H15V301Z" stroke="black" stroke-width="6.10602"/>
<path id="Vector 268" d="M143.5 351.5L258.5 302.5" stroke="black" stroke-width="4.67458"/>
<path id="Vector 266" d="M366.922 390.435L318.5 277M318.5 277L347.5 264M318.5 277L283.5 291.5" stroke="black" stroke-width="4.67458"/>
<path id="Vector 267" d="M446.5 350L400 241M400 241L368.5 254.5M400 241L450.5 217.5" stroke="black" stroke-width="4.67458"/>
<path id="Vector 265" d="M122.5 360L145 351L191 460" stroke="black" stroke-width="4.67458"/>
<path id="Vector 881" d="M93 371L106.5 366" stroke="black" stroke-width="5"/>
<g id="room_ids">
<text id="601" fill="black" xml:space="preserve" style="white-space: pre" font-family="Martian Mono" font-size="23.3729" letter-spacing="0em"><tspan x="563.157" y="132.11">601</tspan></text>
<text id="614" fill="black" xml:space="preserve" style="white-space: pre" font-family="Martian Mono" font-size="23.3729" letter-spacing="0em"><tspan x="555" y="295.849">614</tspan></text>
<text id="616" fill="black" xml:space="preserve" style="white-space: pre" font-family="Martian Mono" font-size="23.3729" letter-spacing="0em"><tspan x="649" y="295.849">616</tspan></text>
<text id="607" fill="black" xml:space="preserve" style="white-space: pre" font-family="Martian Mono" font-size="23.3729" letter-spacing="0em"><tspan x="738" y="131.849">607</tspan></text>
<text id="612" fill="black" xml:space="preserve" style="white-space: pre" font-family="Martian Mono" font-size="23.3729" letter-spacing="0em"><tspan x="472" y="295.849">612</tspan></text>
<text id="608" transform="translate(380.824 337.441) rotate(-115.824)" fill="black" xml:space="preserve" style="white-space: pre" font-family="Martian Mono" font-size="23.3729" letter-spacing="0em"><tspan x="0" y="23.8492">608</tspan></text>
<text id="622" fill="black" xml:space="preserve" style="white-space: pre" font-family="Martian Mono" font-size="23.3729" letter-spacing="0em"><tspan x="892.01" y="308.186">622</tspan></text>
<text id="611" fill="black" xml:space="preserve" style="white-space: pre" font-family="Martian Mono" font-size="23.3729" letter-spacing="0em"><tspan x="970" y="131.849">611</tspan></text>
<text id="638" opacity="0.5" transform="matrix(0 -1 1 0 1649.29 309.268)" fill="black" xml:space="preserve" style="white-space: pre" font-family="Martian Mono" font-size="23.3729" letter-spacing="0em"><tspan x="0" y="23.8492">638</tspan></text>
<text id="636" opacity="0.5" transform="matrix(0 -1 1 0 1610.34 309.268)" fill="black" xml:space="preserve" style="white-space: pre" font-family="Martian Mono" font-size="23.3729" letter-spacing="0em"><tspan x="0" y="23.8492">636</tspan></text>
<text id="642" opacity="0.5" transform="matrix(0 -1 1 0 1571.38 309.268)" fill="black" xml:space="preserve" style="white-space: pre" font-family="Martian Mono" font-size="23.3729" letter-spacing="0em"><tspan x="0" y="23.8492">642</tspan></text>
<text id="632a" opacity="0.5" transform="matrix(0 -1 1 0 1532.43 317.059)" fill="black" xml:space="preserve" style="white-space: pre" font-family="Martian Mono" font-size="23.3729" letter-spacing="0em"><tspan x="0" y="23.8492">632&#x430;</tspan></text>
<text id="640" opacity="0.5" fill="black" xml:space="preserve" style="white-space: pre" font-family="Martian Mono" font-size="23.3729" letter-spacing="0em"><tspan x="1700.71" y="308.186">640</tspan></text>
<text id="628" fill="black" xml:space="preserve" style="white-space: pre" font-family="Martian Mono" font-size="23.3729" letter-spacing="0em"><tspan x="1242.6" y="295.849">628</tspan></text>
<text id="605" fill="black" xml:space="preserve" style="white-space: pre" font-family="Martian Mono" font-size="23.3729" letter-spacing="0em"><tspan x="650.404" y="132.11">605</tspan></text>
<text id="615" opacity="0.5" transform="matrix(0 -1 1 0 1158.46 153.449)" fill="black" xml:space="preserve" style="white-space: pre" font-family="Martian Mono" font-size="15.5819" letter-spacing="0em"><tspan x="0" y="15.7328">615</tspan></text>
<text id="617" opacity="0.5" transform="matrix(0 -1 1 0 1183.39 153.449)" fill="black" xml:space="preserve" style="white-space: pre" font-family="Martian Mono" font-size="15.5819" letter-spacing="0em"><tspan x="0" y="15.7328">617</tspan></text>
<text id="619" opacity="0.5" transform="matrix(0 -1 1 0 1208.32 153.449)" fill="black" xml:space="preserve" style="white-space: pre" font-family="Martian Mono" font-size="15.5819" letter-spacing="0em"><tspan x="0" y="15.7328">619</tspan></text>
<text id="625" fill="black" xml:space="preserve" style="white-space: pre" font-family="Martian Mono" font-size="23.3729" letter-spacing="0em"><tspan x="1703.38" y="121.203">625</tspan></text>
<text id="623" fill="black" xml:space="preserve" style="white-space: pre" font-family="Martian Mono" font-size="23.3729" letter-spacing="0em"><tspan x="1625" y="121.849">623</tspan></text>
<text id="lifts 6" transform="translate(1547.11 140.038) rotate(-90.1555)" fill="black" xml:space="preserve" style="white-space: pre" font-family="Martian Mono" font-size="11" letter-spacing="0em"><tspan x="0" y="11.4">&#x43b;&#x438;&#x444;&#x442;&#x44b;</tspan></text>
<text id="609" transform="matrix(0 1 -1 0 843 104)" fill="black" xml:space="preserve" style="white-space: pre" font-family="Martian Mono" font-size="23.3729" letter-spacing="0em"><tspan x="0" y="23.8492">609</tspan></text>
<text id="613" fill="black" xml:space="preserve" style="white-space: pre" font-family="Martian Mono" font-size="23.3729" letter-spacing="0em"><tspan x="1099" y="132.849">613</tspan></text>
<text id="621" fill="black" xml:space="preserve" style="white-space: pre" font-family="Martian Mono" font-size="23.3729" letter-spacing="0em"><tspan x="1303" y="132.849">621</tspan></text>
<text id="622a" fill="black" xml:space="preserve" style="white-space: pre" font-family="Martian Mono" font-size="23.3729" letter-spacing="0em"><tspan x="987" y="308.849">622a</tspan></text>
<text id="620" transform="matrix(0 -1 1 0 812 317)" fill="black" xml:space="preserve" style="white-space: pre" font-family="Martian Mono" font-size="23.3729" letter-spacing="0em"><tspan x="0" y="23.8492">620</tspan></text>
<text id="618" fill="black" xml:space="preserve" style="white-space: pre" font-family="Martian Mono" font-size="23.3729" letter-spacing="0em"><tspan x="742" y="295.849">618</tspan></text>
<text id="624" fill="black" xml:space="preserve" style="white-space: pre" font-family="Martian Mono" font-size="23.3729" letter-spacing="0em"><tspan x="1083" y="295.849">624</tspan></text>
<text id="626" transform="matrix(0 -1 1 0 1154 311)" fill="black" xml:space="preserve" style="white-space: pre" font-family="Martian Mono" font-size="23.3729" letter-spacing="0em"><tspan x="0" y="23.8492">626</tspan></text>
<text id="632" fill="black" xml:space="preserve" style="white-space: pre" font-family="Martian Mono" font-size="23.3729" letter-spacing="0em"><tspan x="1430" y="292.849">632</tspan></text>
<text id="602" transform="translate(125.536 452.356) rotate(-113)" fill="black" xml:space="preserve" style="white-space: pre" font-family="Martian Mono" font-size="23.3729" letter-spacing="0em"><tspan x="0" y="23.8492">602</tspan></text>
<text id="wc_w 6" fill="white" xml:space="preserve" style="white-space: pre" font-family="Martian Mono" font-size="32" letter-spacing="0em"><tspan x="513" y="132.8">&#x436;</tspan></text>
<text id="dekanat_m" transform="translate(167 375.934) rotate(-23)" fill="black" xml:space="preserve" style="white-space: pre" font-family="Martian Mono" font-size="23.3729" letter-spacing="0em"><tspan x="0" y="23.8492">&#x434;&#x435;&#x43a;&#x430;&#x43d;&#x430;&#x442;</tspan></text>
<text id="630" opacity="0.5" transform="matrix(0 -1 1 0 1348 321)" fill="black" xml:space="preserve" style="white-space: pre" font-family="Martian Mono" font-size="23.3729" letter-spacing="0em"><tspan x="0" y="23.8492">630</tspan></text>
</g>
<g id="lift">
<rect id="Rectangle 60" x="1546.09" y="119" width="34.0569" height="21" transform="rotate(179.845 1546.09 119)" fill="black"/>
<rect id="Rectangle 59" x="1546.09" y="143.092" width="34.0569" height="21" transform="rotate(179.845 1546.09 143.092)" fill="black"/>
</g>
<rect id="Rectangle 148" x="260" y="262" width="9" height="1" fill="#D9D9D9"/>
<path id="Rectangle 106" d="M547 75H595.746H630V159.734V191H547V75Z" fill="#75D3FF" fill-opacity="0.52"/>
<path id="Rectangle 149" d="M636 75H684.159H718V159.734V191H636V75Z" fill="#75D3FF" fill-opacity="0.52"/>
<path id="Rectangle 150" d="M724 74H769.81H802V159.465V191H724V74Z" fill="#75D3FF" fill-opacity="0.52"/>
<path id="Rectangle 151" d="M808 74H833.841H852V159.465V191H808V74Z" fill="#75D3FF" fill-opacity="0.52"/>
<path id="Rectangle 152" d="M903 74H1012.24H1089V158.004V189H903V74Z" fill="#75D3FF" fill-opacity="0.52"/>
<path id="Rectangle 154" d="M1235 74H1338.37H1412V158.5V177H1355V189H1235V74Z" fill="#75D3FF" fill-opacity="0.52"/>
<path id="Rectangle 153" d="M1095 74H1129.65H1154V158.004V189H1095V74Z" fill="#75D3FF" fill-opacity="0.52"/>
<path id="Rectangle 155" d="M1194 230H1280.33H1341V314.004V345H1194V230Z" fill="#75D3FF" fill-opacity="0.52"/>
<g id="staircase">
<g id="staircase 6 1 group">
<path id="staircase 6 1" d="M473 91H483V153H473V91Z" stroke="black" stroke-width="5"/>
<path id="Vector 664" d="M505 151H483M505 151H483" stroke="black" stroke-width="3"/>
<path id="Vector 665" d="M505 132H483M505 132H483" stroke="black" stroke-width="3"/>
<path id="Vector 666" d="M505 141H483M505 141H483" stroke="black" stroke-width="3"/>
<path id="Vector 667" d="M506 123H483M506 123H483" stroke="black" stroke-width="3"/>
<path id="Vector 668" d="M505 104H483M505 104H483" stroke="black" stroke-width="3"/>
<path id="Vector 669" d="M505 95H483M505 95H483" stroke="black" stroke-width="3"/>
<path id="Vector 670" d="M505 114H483M505 114H483" stroke="black" stroke-width="3"/>
<path id="Vector 671" d="M474 151H451M474 151H451" stroke="black" stroke-width="3"/>
<path id="Vector 672" d="M474 132H451M474 132H451" stroke="black" stroke-width="3"/>
<path id="Vector 673" d="M474 141H451M474 141H451" stroke="black" stroke-width="3"/>
<path id="Vector 674" d="M474 123H452M474 123H452" stroke="black" stroke-width="3"/>
<path id="Vector 675" d="M474 104H451M474 104H451" stroke="black" stroke-width="3"/>
<path id="Vector 676" d="M474 95H451M474 95H451" stroke="black" stroke-width="3"/>
<path id="Vector 677" d="M474 114H451M474 114H451" stroke="black" stroke-width="3"/>
</g>
<g id="staircase 6 2 group">
<path id="staircase 6 2" d="M873 91H882V153H873V91Z" stroke="black" stroke-width="5"/>
<path id="Vector 679" d="M901 151H882M901 151H882" stroke="black" stroke-width="3"/>
<path id="Vector 680" d="M901 132H882M901 132H882" stroke="black" stroke-width="3"/>
<path id="Vector 681" d="M901 141H882M901 141H882" stroke="black" stroke-width="3"/>
<path id="Vector 682" d="M902 123H882M902 123H882" stroke="black" stroke-width="3"/>
<path id="Vector 683" d="M901 104H882M901 104H882" stroke="black" stroke-width="3"/>
<path id="Vector 684" d="M901 95H882M901 95H882" stroke="black" stroke-width="3"/>
<path id="Vector 685" d="M901 114H882M901 114H882" stroke="black" stroke-width="3"/>
<path id="Vector 686" d="M874 151H854M874 151H854" stroke="black" stroke-width="3"/>
<path id="Vector 687" d="M874 132H854M874 132H854" stroke="black" stroke-width="3"/>
<path id="Vector 688" d="M874 141H854M874 141H854" stroke="black" stroke-width="3"/>
<path id="Vector 689" d="M874 123H855M874 123H855" stroke="black" stroke-width="3"/>
<path id="Vector 690" d="M874 104H854M874 104H854" stroke="black" stroke-width="3"/>
<path id="Vector 691" d="M874 95H854M874 95H854" stroke="black" stroke-width="3"/>
<path id="Vector 692" d="M874 114H854M874 114H854" stroke="black" stroke-width="3"/>
</g>
<g id="staircase 6 3 group">
<path id="staircase 6 3" d="M1479 95H1487V157H1479V95Z" stroke="black" stroke-width="5"/>
<path id="Vector 694" d="M1505 155H1487M1505 155H1487" stroke="black" stroke-width="3"/>
<path id="Vector 695" d="M1505 136H1487M1505 136H1487" stroke="black" stroke-width="3"/>
<path id="Vector 696" d="M1505 145H1487M1505 145H1487" stroke="black" stroke-width="3"/>
<path id="Vector 697" d="M1506 127H1487M1506 127H1487" stroke="black" stroke-width="3"/>
<path id="Vector 698" d="M1505 108H1487M1505 108H1487" stroke="black" stroke-width="3"/>
<path id="Vector 699" d="M1505 99H1487M1505 99H1487" stroke="black" stroke-width="3"/>
<path id="Vector 700" d="M1505 118H1487M1505 118H1487" stroke="black" stroke-width="3"/>
<path id="Vector 701" d="M1480 155H1461M1480 155H1461" stroke="black" stroke-width="3"/>
<path id="Vector 702" d="M1480 136H1461M1480 136H1461" stroke="black" stroke-width="3"/>
<path id="Vector 703" d="M1480 145H1461M1480 145H1461" stroke="black" stroke-width="3"/>
<path id="Vector 704" d="M1480 127H1462M1480 127H1462" stroke="black" stroke-width="3"/>
<path id="Vector 705" d="M1480 108H1461M1480 108H1461" stroke="black" stroke-width="3"/>
<path id="Vector 706" d="M1480 99H1461M1480 99H1461" stroke="black" stroke-width="3"/>
<path id="Vector 707" d="M1480 118H1461M1480 118H1461" stroke="black" stroke-width="3"/>
</g>
</g>
<path id="Rectangle 156" d="M982 254H1028.98H1062V321.203V346H982V254Z" fill="#75D3FF" fill-opacity="0.52"/>
<path id="Rectangle 158" d="M855 227H925.476H975V313.926V346H855V227Z" fill="#75D3FF" fill-opacity="0.52"/>
<path id="Rectangle 159" d="M808 228H831.492H848V314.195V346H808V228Z" fill="#75D3FF" fill-opacity="0.52"/>
<path id="Rectangle 160" d="M731 228H772.698H802V314.195V346H731V228Z" fill="#75D3FF" fill-opacity="0.52"/>
<path id="Rectangle 161" d="M622 228H683.079H726V314.195V346H622V228Z" fill="#75D3FF" fill-opacity="0.52"/>
<path id="Rectangle 162" d="M545 228H586.698H616V314.195V346H545V228Z" fill="#75D3FF" fill-opacity="0.52"/>
<path id="Rectangle 163" d="M455 228H503.746H538V314.195V346H455V228Z" fill="#75D3FF" fill-opacity="0.52"/>
<path id="Rectangle 164" d="M1070 230H1112.87H1143V314.004V345H1070V230Z" fill="#75D3FF" fill-opacity="0.52"/>
<path id="Rectangle 165" d="M1149 230H1171.9H1188V314.734V346H1149V230Z" fill="#75D3FF" fill-opacity="0.52"/>
<path id="Rectangle 166" d="M1386 230H1467.63H1525V314.004V345H1386V230Z" fill="#75D3FF" fill-opacity="0.52"/>
<path id="Rectangle 167" d="M1620 74H1658.17H1685V141.203V166H1620V74Z" fill="#75D3FF" fill-opacity="0.52"/>
<path id="Rectangle 168" d="M1691 74H1732.11H1761V141.203V166H1691V74Z" fill="#75D3FF" fill-opacity="0.52"/>
<path id="Rectangle 169" d="M320.946 277.56L366.891 258.057L399.177 244.353L432.211 322.177L444.4 350.893L366.17 384.1L320.946 277.56Z" fill="#75D3FF" fill-opacity="0.52"/>
<path id="Rectangle 126" d="M403 242.192L447.5 222L447.5 278L447.5 346L403 242.192Z" fill="#D9D9D9"/>
<rect id="Rectangle 59_2" x="478.839" y="195" width="22.7822" height="21" transform="rotate(179.845 478.839 195)" fill="black"/>
<rect id="Rectangle 173" x="159" y="267.288" width="41.6849" height="36.0571" transform="rotate(-23 159 267.288)" fill="black"/>
<rect id="Rectangle 174" x="268" y="218.288" width="41.6849" height="36.0571" transform="rotate(-23 268 218.288)" fill="black"/>
<rect id="Rectangle 182" x="375.363" y="191.388" width="41.943" height="16.894" transform="rotate(-23 375.363 191.388)" fill="black"/>
<path id="Rectangle 181" d="M351 181.288L442.5 141.5L442.5 182.5L429.5 182.5L429.5 161L357 193.5L351 181.288Z" fill="black"/>
<rect id="Rectangle 170" x="517.007" y="188.638" width="16.9649" height="15.6378" transform="rotate(179.845 517.007 188.638)" fill="black"/>
<text id="&#208;&#176;&#208;&#178;&#209;&#130;&#208;&#190;&#208;&#188;&#208;&#176;&#209;&#130;&#209;&#139;" fill="black" xml:space="preserve" style="white-space: pre" font-family="Martian Mono" font-size="12" letter-spacing="0em"><tspan x="457" y="204.3">&#x430;&#x432;&#x442;&#x43e;&#x43c;&#x430;&#x442;&#x44b;</tspan></text>
<path id="Vector 878" d="M320 408L287.5 331" stroke="black" stroke-width="5"/>
<path id="Vector 879" d="M280 422L258 370" stroke="black" stroke-width="5"/>
<path id="Vector 880" d="M248 348L233 312" stroke="black" stroke-width="5"/>
<rect id="Rectangle 101" x="18" y="303" width="72" height="182" fill="#D9D9D9"/>
<path id="Rectangle 186" d="M1746 172H1757.6H1763V192.074V253H1746V172Z" fill="#D9D9D9"/>
<path id="Rectangle 180" d="M1418 74H1445.28H1458V102.748V172.5L1438.5 172.5V190L1418 190V74Z" fill="#D9D9D9"/>
<text id="&#209;&#130;&#208;&#181;&#208;&#189;&#208;&#189;&#208;&#184;&#209;&#129;" transform="translate(212 254.49) rotate(-23)" fill="black" xml:space="preserve" style="white-space: pre" font-family="Martian Mono" font-size="13" letter-spacing="0em"><tspan x="0" y="13.2">&#x442;&#x435;&#x43d;&#x43d;&#x438;&#x441;</tspan></text>
<text id="&#208;&#180;&#208;&#184;&#208;&#178;&#208;&#176;&#208;&#189;&#209;&#135;&#208;&#184;&#208;&#186;&#208;&#184;" transform="translate(353 218.04) rotate(-23)" fill="black" xml:space="preserve" style="white-space: pre" font-family="Martian Mono" font-size="13" letter-spacing="0em"><tspan x="0" y="13.2">&#x434;&#x438;&#x432;&#x430;&#x43d;&#x447;&#x438;&#x43a;&#x438;</tspan></text>
<path id="Rectangle 172" d="M96.4999 414L96.4999 372.5L143.439 354L176.473 431.824L188.662 460.54L96.5001 500.5L96.4999 414Z" fill="#75D3FF" fill-opacity="0.52"/>
<text id="&#209;&#129;&#208;&#191;&#209;&#131;&#209;&#129;&#208;&#186; &#208;&#178; &#208;&#179;&#208;&#176;&#209;&#128;&#208;&#180;&#208;&#181;&#209;&#128;&#208;&#190;&#208;&#177;" fill="black" xml:space="preserve" style="white-space: pre" font-family="Martian Mono" font-size="23.3729" letter-spacing="0em"><tspan x="1353" y="55.8492">&#x441;&#x43f;&#x443;&#x441;&#x43a; &#x432; &#x433;&#x430;&#x440;&#x434;&#x435;&#x440;&#x43e;&#x431;</tspan></text>
<path id="graph floor6 matmeh" d="M1729.5 215.5V178V120.5M1729.5 215.5V234.5V307M1729.5 215.5H1666M1666 215.5V234.5V307M1666 215.5H1653M1666 215.5H1627.5M1653 215.5V178V120.5M1653 215.5H1627.5M1627.5 215.5V234.5V307M1627.5 215.5H1587.5M1587.5 215.5V234.5V307M1587.5 215.5H1576M1576 215.5V178L1557 115M1576 215.5H1548.5M1548.5 215.5V234.5V307M1548.5 215.5H1477M1477 215.5V183L1472 90.5M1477 215.5H1450M1450 215.5V234.5V307M1450 215.5H1363.5M1363.5 215.5V234.5V299.5M1363.5 215.5H1265.5M1265.5 215.5V234.5V307M1265.5 215.5H1256.5M1256.5 215.5V199.5L1322.5 129.5M1256.5 215.5H1220.5M1168.5 215.5V234.5V299.5M1168.5 215.5H1125M1168.5 215.5V199.5V143.5M1168.5 215.5H1194M1125 215.5V199.5V129.5M1125 215.5H1105M1194 215.5V199.5V143.5M1194 215.5H1220.5M1220.5 215.5V199.5V143.5M1030 215.5V199.5L998 132.5M1030 215.5H992M1030 215.5H1105M992 215.5V258.5L1018.5 307M992 215.5H917M917 215.5V234.5L918.5 304.5M917 215.5H873.75M830.5 215.5V199.5V132.5M830.5 215.5H827M830.5 215.5H873.75M827 215.5V234.5V293.5M827 215.5H778M778 215.5V199.5L768 132.5M778 215.5H768M768 215.5V234.5V307M768 215.5H693.5M693.5 215.5V199.5L678.5 128.5M693.5 215.5H686M686 215.5V234.5V307M686 215.5H607M607 215.5V199.5L589 128.5M607 215.5V234.5L563.5 292.5M607 215.5H532.5H508M498.5 215.5V234.5L477.5 292.5M498.5 215.5H461.5V209.5H440.5L355.717 246M498.5 215.5H508M498.5 215.5L491 184.5L477.5 172.5L472.5 93.5M1105 215.5V234.5V307M263.5 267.314L128.5 321L109 359.5L128.5 439M263.5 267.314L349.5 233.115L355.717 246M263.5 267.314L279 307L182.5 395.5M525.5 132.5L532.5 169.5L508 215.5M392 325.5L366 267.314L355.717 246M873.75 215.5V179V91" stroke="#FF0000" stroke-width="3"/>
<path id="Rectangle 171" d="M148 351.922L247.512 309.682L317.439 280L350.473 357.824L362.662 386.54L193.224 458.463L148 351.922Z" fill="#75D3FF" fill-opacity="0.52"/>
</g>
</svg>
