<svg width="1787" height="522" viewBox="0 0 1787 522" fill="none" xmlns="http://www.w3.org/2000/svg">
<g id="floor 5 matmeh" clip-path="url(#clip0_2001_2)">
<g id="floor5 matmeh">
<path id="Vector" d="M1787 0H0V522H1787V0Z" fill="white"/>
<path id="Rectangle 189" d="M1416 79H1456V177H1436V194.5H1416V79Z" fill="#3F4CFF"/>
<path id="Rectangle 108" d="M538 79H504V174H538V79Z" fill="#FF3FD9"/>
<path id="Vector 205" d="M1459.43 75.5154H1503.19V181.353H1487.92" stroke="black" stroke-width="6.10602"/>
<path id="Vector 204" d="M1436.19 198H1413V76H1458.38V180.717M1458.38 180.717H1436.19M1458.38 180.717H1466" stroke="black" stroke-width="6.10602"/>
<path id="Vector 197" d="M976 198H895" stroke="black" stroke-width="6.10602"/>
<path id="Vector 199" d="M863.073 176.266H846.791" stroke="black" stroke-width="6.10602"/>
<path id="Vector 200" d="M899.709 176.266H883.426" stroke="black" stroke-width="6.10602"/>
<path id="Vector 198" d="M897.677 76.5319H848.829" stroke="black" stroke-width="6.10602"/>
<path id="Vector 191" d="M706.693 229H727V353H539V229H687.138" stroke="black" stroke-width="6.10602"/>
<path id="Vector 192" d="M504.218 229H539V353H450V229H483.759" stroke="black" stroke-width="6.10602"/>
<path id="Vector 207" d="M482.879 177.282H500.785V76.5327H449.901V177.282H462.622" stroke="black" stroke-width="6.10602"/>
<path id="Vector 193" d="M612.386 199H631V76H540V199H592.739" stroke="black" stroke-width="6.10602"/>
<path id="Vector 206" d="M540 199V76H501V177.475H521.475" stroke="black" stroke-width="6.10602"/>
<path id="Vector 194" d="M701 199H719V76H631V199H680.995" stroke="black" stroke-width="6.10602"/>
<path id="Vector 195" d="M744.795 199H718V76H849V199H765.391" stroke="black" stroke-width="6.10602"/>
<path id="Vector 196" d="M1029.6 198H1089V77H897L897.326 198H966.57H979.723H1009.27" stroke="black" stroke-width="6.10602"/>
<path id="Vector 175" d="M1504.21 197.636V75.5154H1615.13V173.212H1536.77" stroke="black" stroke-width="6.10602"/>
<path id="Vector 180" d="M1607.12 231.219H1567.3V353.34H1662.96V231.219H1626.59" stroke="black" stroke-width="6.10602"/>
<path id="Vector 181" d="M1511.29 231.219H1471.64V353.34H1567.31V231.219H1530.76" stroke="black" stroke-width="6.10602"/>
<path id="Vector 183" d="M1347.67 231.219H1371.91V353.34H1304.74V231.219H1327.42" stroke="black" stroke-width="6.10602"/>
<path id="Vector 184" d="M1294.7 231.219H1304.74V353.34H1264.03V231.219H1274.44" stroke="black" stroke-width="6.10602"/>
<path id="Vector 185" d="M1252.63 231.219H1264.04V353.34H1223.33V231.219H1233.15" stroke="black" stroke-width="6.10602"/>
<path id="Vector 187" d="M1091.8 231H1103V353H1062V231H1071.4" stroke="black" stroke-width="6.10602"/>
<path id="Vector 190" d="M801.362 229H849V353H728V229H781.292" stroke="black" stroke-width="6.10602"/>
<path id="Vector 188" d="M1000.55 254.423H1062V353H977V228" stroke="black" stroke-width="6.10602"/>
<path id="Vector 189" d="M924.554 229.183H977.056V353.339H848.829V229.183H903.591" stroke="black" stroke-width="6.10602"/>
<path id="Vector 182" d="M1430.26 231.219H1471.65V353.34H1371.91V231.219H1409.57" stroke="black" stroke-width="6.10602"/>
<path id="Vector 178" d="M1726.32 175.24V231.335H1762.94V175.24H1726.32Z" stroke="black" stroke-width="6.10602"/>
<path id="Vector 179" d="M1763.71 231.219V353.34H1663.98V231.219H1702.94" stroke="black" stroke-width="6.10602"/>
<path id="Vector 186" d="M1126.65 231.219H1223.33V353.34H1102.22V231.219" stroke="black" stroke-width="6.10602"/>
<path id="Vector 202" d="M1100.76 198H1088V77H1168.63M1168.63 77H1236V198H1168.63M1168.63 77V130.442M1119.64 198H1168.63M1168.63 198V148.592" stroke="black" stroke-width="6.10602"/>
<path id="Vector 203" d="M1253.35 198H1236V76H1413V185.8H1357.69V198H1273.37" stroke="black" stroke-width="6.10602"/>
<path id="Vector 208" d="M104.907 289.227L448.879 149.807V353.341L104.907 490.726V289.227Z" stroke="black" stroke-width="6.10602"/>
<path id="Vector 209" d="M12.304 305.507H104.912V492.759H12.304V305.507Z" stroke="black" stroke-width="6.10602"/>
<path id="Vector 281" d="M1642.4 175H1616V76H1687V175H1662.59" stroke="black" stroke-width="6.10602"/>
<path id="Vector 282" d="M1703.51 175H1687V76H1763V175H1740.79" stroke="black" stroke-width="6.10602"/>
<path id="Rectangle 60" d="M1509.05 124.092L1543.11 124L1543.05 103L1509 103.092L1509.05 124.092Z" fill="black"/>
<path id="Rectangle 59" d="M1509.05 148.184L1543.11 148.092L1543.05 127.092L1509 127.184L1509.05 148.184Z" fill="black"/>
<g id="room_ids">
<text id="532" fill="black" xml:space="preserve" style="white-space: pre" font-family="Martian Mono" font-size="23.3729" letter-spacing="0em"><tspan x="1395.43" y="300.825">532</tspan></text>
<text id="534" fill="black" xml:space="preserve" style="white-space: pre" font-family="Martian Mono" font-size="23.3729" letter-spacing="0em"><tspan x="1492" y="300.825">534</tspan></text>
<text id="509" fill="black" xml:space="preserve" style="white-space: pre" font-family="Martian Mono" font-size="23.3729" letter-spacing="0em"><tspan x="968.178" y="136.737">509</tspan></text>
<text id="513" fill="black" xml:space="preserve" style="white-space: pre" font-family="Martian Mono" font-size="23.3729" letter-spacing="0em"><tspan x="1296.85" y="136.737">513</tspan></text>
<text id="515" fill="black" xml:space="preserve" style="white-space: pre" font-family="Martian Mono" font-size="23.3729" letter-spacing="0em"><tspan x="1627.01" y="136.737">515</tspan></text>
<text id="517" fill="black" xml:space="preserve" style="white-space: pre" font-family="Martian Mono" font-size="23.3729" letter-spacing="0em"><tspan x="1700.94" y="136.737">517</tspan></text>
<text id="lifts 5" transform="translate(1546.47 143.037) rotate(-90.1555)" fill="black" xml:space="preserve" style="white-space: pre" font-family="Martian Mono" font-size="11" letter-spacing="0em"><tspan x="0" y="10.9">&#x43b;&#x438;&#x444;&#x442;&#x44b;</tspan></text>
<text id="wc_m 5" fill="white" xml:space="preserve" style="white-space: pre" font-family="Martian Mono" font-size="32" letter-spacing="0em"><tspan x="1424" y="140.1">&#x43c;</tspan></text>
<text id="511" fill="black" xml:space="preserve" style="white-space: pre" font-family="Martian Mono" font-size="23.3729" letter-spacing="0em"><tspan x="1106" y="137.825">511</tspan></text>
<text id="522" fill="black" xml:space="preserve" style="white-space: pre" font-family="Martian Mono" font-size="23.3729" letter-spacing="0em"><tspan x="888" y="301.825">522</tspan></text>
<text id="514" fill="black" xml:space="preserve" style="white-space: pre" font-family="Martian Mono" font-size="23.3729" letter-spacing="0em"><tspan x="606" y="302.825">514</tspan></text>
<text id="501" fill="black" xml:space="preserve" style="white-space: pre" font-family="Martian Mono" font-size="23.3729" letter-spacing="0em"><tspan x="561" y="144.825">501</tspan></text>
<text id="505" fill="black" xml:space="preserve" style="white-space: pre" font-family="Martian Mono" font-size="23.3729" letter-spacing="0em"><tspan x="652" y="145.825">505</tspan></text>
<text id="507" fill="black" xml:space="preserve" style="white-space: pre" font-family="Martian Mono" font-size="23.3729" letter-spacing="0em"><tspan x="759" y="146.325">507</tspan></text>
<text id="524a" fill="black" xml:space="preserve" style="white-space: pre" font-family="Martian Mono" font-size="23.3729" letter-spacing="0em"><tspan x="989" y="315.325">524a</tspan></text>
<text id="524" transform="matrix(0 -1 1 0 1068.98 317)" fill="black" xml:space="preserve" style="white-space: pre" font-family="Martian Mono" font-size="23.3729" letter-spacing="0em"><tspan x="0" y="23.3492">524</tspan></text>
<text id="526" fill="black" xml:space="preserve" style="white-space: pre" font-family="Martian Mono" font-size="23.3729" letter-spacing="0em"><tspan x="1138" y="300.325">526</tspan></text>
<text id="528" transform="matrix(0 -1 1 0 1229.98 314)" fill="black" xml:space="preserve" style="white-space: pre" font-family="Martian Mono" font-size="23.3729" letter-spacing="0em"><tspan x="0" y="23.3492">528</tspan></text>
<text id="530a" transform="matrix(0 -1 1 0 1270.98 323)" fill="black" xml:space="preserve" style="white-space: pre" font-family="Martian Mono" font-size="23.3729" letter-spacing="0em"><tspan x="0" y="23.3492">530a</tspan></text>
<text id="530" transform="matrix(0 -1 1 0 1324.98 317)" fill="black" xml:space="preserve" style="white-space: pre" font-family="Martian Mono" font-size="23.3729" letter-spacing="0em"><tspan x="0" y="23.3492">530</tspan></text>
<text id="538" fill="black" xml:space="preserve" style="white-space: pre" font-family="Martian Mono" font-size="23.3729" letter-spacing="0em"><tspan x="1591" y="301.325">538</tspan></text>
<text id="540" fill="black" xml:space="preserve" style="white-space: pre" font-family="Martian Mono" font-size="23.3729" letter-spacing="0em"><tspan x="1689" y="301.325">540</tspan></text>
<text id="wc_w 5" fill="white" xml:space="preserve" style="white-space: pre" font-family="Martian Mono" font-size="32" letter-spacing="0em"><tspan x="511" y="138.6">&#x436;</tspan></text>
</g>
<path id="Rectangle 187" d="M102 308H15V490H102V308Z" fill="#D9D9D9"/>
<path id="Rectangle 190" d="M846 232H730V350H846V232Z" fill="#D9D9D9"/>
<path id="Rectangle 191" d="M536 232H453V350H536V232Z" fill="#D9D9D9"/>
<path id="Rectangle 188" d="M108 291L445.5 155V351.5L108 486V291Z" fill="#D9D9D9"/>
<g id="staircase">
<g id="staircase 5 1 group">
<path id="staircase 5 1" d="M470 96H480V158H470V96Z" stroke="black" stroke-width="5"/>
<path id="Vector 664" d="M502 156H480" stroke="black" stroke-width="3"/>
<path id="Vector 665" d="M502 137H480" stroke="black" stroke-width="3"/>
<path id="Vector 666" d="M502 146H480" stroke="black" stroke-width="3"/>
<path id="Vector 667" d="M503 128H480" stroke="black" stroke-width="3"/>
<path id="Vector 668" d="M502 109H480" stroke="black" stroke-width="3"/>
<path id="Vector 669" d="M502 100H480" stroke="black" stroke-width="3"/>
<path id="Vector 670" d="M502 119H480" stroke="black" stroke-width="3"/>
<path id="Vector 671" d="M471 156H448" stroke="black" stroke-width="3"/>
<path id="Vector 672" d="M471 137H448" stroke="black" stroke-width="3"/>
<path id="Vector 673" d="M471 146H448" stroke="black" stroke-width="3"/>
<path id="Vector 674" d="M471 128H449" stroke="black" stroke-width="3"/>
<path id="Vector 675" d="M471 109H448" stroke="black" stroke-width="3"/>
<path id="Vector 676" d="M471 100H448" stroke="black" stroke-width="3"/>
<path id="Vector 677" d="M471 119H448" stroke="black" stroke-width="3"/>
</g>
<g id="staircase 5 2 group">
<path id="staircase 5 2" d="M868.8 96H878.255V158H868.8V96Z" stroke="black" stroke-width="5"/>
<path id="Vector 664_2" d="M899.055 156H878.255" stroke="black" stroke-width="3"/>
<path id="Vector 665_2" d="M899.055 137H878.255" stroke="black" stroke-width="3"/>
<path id="Vector 666_2" d="M899.055 146H878.255" stroke="black" stroke-width="3"/>
<path id="Vector 667_2" d="M900 128H878.255" stroke="black" stroke-width="3"/>
<path id="Vector 668_2" d="M899.055 109H878.255" stroke="black" stroke-width="3"/>
<path id="Vector 669_2" d="M899.055 100H878.255" stroke="black" stroke-width="3"/>
<path id="Vector 670_2" d="M899.055 119H878.255" stroke="black" stroke-width="3"/>
<path id="Vector 671_2" d="M869.745 156H848" stroke="black" stroke-width="3"/>
<path id="Vector 672_2" d="M869.745 137H848" stroke="black" stroke-width="3"/>
<path id="Vector 673_2" d="M869.745 146H848" stroke="black" stroke-width="3"/>
<path id="Vector 674_2" d="M869.745 128H848.945" stroke="black" stroke-width="3"/>
<path id="Vector 675_2" d="M869.745 109H848" stroke="black" stroke-width="3"/>
<path id="Vector 676_2" d="M869.745 100H848" stroke="black" stroke-width="3"/>
<path id="Vector 677_2" d="M869.745 119H848" stroke="black" stroke-width="3"/>
</g>
<g id="staircase 5 3 group">
<path id="staircase 5 3" d="M1477.4 97H1485.76V159H1477.4V97Z" stroke="black" stroke-width="5"/>
<path id="Vector 664_3" d="M1504.16 157H1485.76" stroke="black" stroke-width="3"/>
<path id="Vector 665_3" d="M1504.16 138H1485.76" stroke="black" stroke-width="3"/>
<path id="Vector 666_3" d="M1504.16 147H1485.76" stroke="black" stroke-width="3"/>
<path id="Vector 667_3" d="M1505 129H1485.76" stroke="black" stroke-width="3"/>
<path id="Vector 668_3" d="M1504.16 110H1485.76" stroke="black" stroke-width="3"/>
<path id="Vector 669_3" d="M1504.16 101H1485.76" stroke="black" stroke-width="3"/>
<path id="Vector 670_3" d="M1504.16 120H1485.76" stroke="black" stroke-width="3"/>
<path id="Vector 671_3" d="M1478.24 157H1459" stroke="black" stroke-width="3"/>
<path id="Vector 672_3" d="M1478.24 138H1459" stroke="black" stroke-width="3"/>
<path id="Vector 673_3" d="M1478.24 147H1459" stroke="black" stroke-width="3"/>
<path id="Vector 674_3" d="M1478.24 129H1459.84" stroke="black" stroke-width="3"/>
<path id="Vector 675_3" d="M1478.24 110H1459" stroke="black" stroke-width="3"/>
<path id="Vector 676_3" d="M1478.24 101H1459" stroke="black" stroke-width="3"/>
<path id="Vector 677_3" d="M1478.24 120H1459" stroke="black" stroke-width="3"/>
</g>
</g>
<text id="&#195;&#145;&#194;&#129;&#195;&#144;&#194;&#191;&#195;&#145;&#194;&#131;&#195;&#145;&#194;&#129;&#195;&#144;&#194;&#186; &#195;&#144;&#194;&#178; &#195;&#144;&#194;&#179;&#195;&#144;&#194;&#176;&#195;&#145;&#194;&#128;&#195;&#144;&#194;&#180;&#195;&#144;&#194;&#181;&#195;&#145;&#194;&#128;&#195;&#144;&#194;&#190;&#195;&#144;&#194;&#177;" fill="black" xml:space="preserve" style="white-space: pre" font-family="Martian Mono" font-size="23.3729" letter-spacing="0em"><tspan x="1328" y="55.8255">&#x441;&#x43f;&#x443;&#x441;&#x43a; &#x432; &#x433;&#x430;&#x440;&#x434;&#x435;&#x440;&#x43e;&#x431;</tspan></text>
<path id="Rectangle 187_2" d="M900 80H1008.65H1085V164.004V195H900V80Z" fill="#75D3FF" fill-opacity="0.52"/>
<path id="Rectangle 192" d="M722 79H794.825H846V164.465V196H722V79Z" fill="#75D3FF" fill-opacity="0.52"/>
<path id="Rectangle 193" d="M634 79H681.571H715V164.465V196H634V79Z" fill="#75D3FF" fill-opacity="0.52"/>
<path id="Rectangle 195" d="M542 232H648.889H724V318.195V350H542V232Z" fill="#75D3FF" fill-opacity="0.52"/>
<path id="Rectangle 196" d="M852 232H923.651H974V318.195V350H852V232Z" fill="#75D3FF" fill-opacity="0.52"/>
<path id="Rectangle 194" d="M543 79H592.921H628V164.465V196H543V79Z" fill="#75D3FF" fill-opacity="0.52"/>
<path id="Rectangle 197" d="M980 257H1026.4H1059V324.934V350H980V257Z" fill="#75D3FF" fill-opacity="0.52"/>
<path id="Rectangle 198" d="M1092 80H1174.81H1233V164.004V195H1092V80Z" fill="#75D3FF" fill-opacity="0.52"/>
<path id="Rectangle 200" d="M1619 79H1657.17H1684V146.934V172H1619V79Z" fill="#75D3FF" fill-opacity="0.52"/>
<path id="Rectangle 201" d="M1690 79H1731.11H1760V146.934V172H1690V79Z" fill="#75D3FF" fill-opacity="0.52"/>
<path id="Rectangle 202" d="M1475 234H1527.27H1564V318.734V350H1475V234Z" fill="#75D3FF" fill-opacity="0.52"/>
<path id="Rectangle 205" d="M1375 234H1430.21H1469V318.734V350H1375V234Z" fill="#75D3FF" fill-opacity="0.52"/>
<path id="Rectangle 199" d="M1239 79H1339.43H1410V163.734V183H1354.5V195H1239V79Z" fill="#75D3FF" fill-opacity="0.52"/>
<path id="Rectangle 203" d="M1065 234H1084.97H1099V318.734V350H1065V234Z" fill="#75D3FF" fill-opacity="0.52"/>
<path id="Rectangle 204" d="M1106 234H1172.95H1220V318.734V350H1106V234Z" fill="#75D3FF" fill-opacity="0.52"/>
<path id="Rectangle 207" d="M1267 234H1287.56H1302V318.734V350H1267V234Z" fill="#75D3FF" fill-opacity="0.52"/>
<path id="Rectangle 206" d="M1308 234H1343.83H1369V318.734V350H1308V234Z" fill="#75D3FF" fill-opacity="0.52"/>
<path id="Rectangle 208" d="M1226 234H1246.56H1261V318.734V350H1226V234Z" fill="#75D3FF" fill-opacity="0.52"/>
<path id="Rectangle 209" d="M1570 234H1622.86H1660V318.734V350H1570V234Z" fill="#75D3FF" fill-opacity="0.52"/>
<path id="Rectangle 210" d="M1667 234H1721.62H1760V318.734V350H1667V234Z" fill="#75D3FF" fill-opacity="0.52"/>
<path id="graph floor 5" d="M1712 215H1652M1712 215V167.5V128M1712 215V237L1697.5 309.5M1652 215H1616.75M1652 215V167.5L1635 128M600.5 215V185L575.5 134.5M600.5 215H697M600.5 215H529.5M464 87L471 181.5V215H529.5M697 215V235L628.5 307.5M697 215H756M697 215L691 185L656.5 131.5M756 215V185L766 131.5M756 215H874.5M1420 215H1462.5H1477M1420 215H1338.5M1420 215V237L1404 309.5M1477 215H1521.5M1477 215V189.5M874.5 215H914M874.5 215V180L862.5 88.5M914 215V233.5L898.5 307.5M914 215H989M989 215V258.5L995 307.5M989 215H1019M1019 215H1082.5M1019 215V190L977 130M1082.5 215V237V323M1082.5 215H1110.5M1110.5 215H1118M1110.5 215V190V130M1118 215V237L1146 307.5M1118 215H1243M1243 215H1263.5M1243 215V237V323M1263.5 215V190L1306 130.5M1263.5 215H1287M1287 215V237V323M1287 215H1338.5M1338.5 215V237V323M1521.5 215V237L1499.5 309.5M1521.5 215H1616.75M1521.5 215V178L1554.5 128M1616.75 215V237L1599 309.5M1477 189.5L1470 87M1477 189.5H1427V119M529.5 215V174L513 115.5" stroke="#FF0000" stroke-width="3"/>
</g>
</g>
<defs>
<clipPath id="clip0_2001_2">
<rect width="1787" height="522" fill="white"/>
</clipPath>
</defs>
</svg>
