<svg width="823" height="402" viewBox="0 0 823 402" fill="none" xmlns="http://www.w3.org/2000/svg">
<g id="floor 1 kuibysheva">
<rect width="402" height="823" transform="matrix(0 1 -1 0 823 0)" fill="white"/>
<g id="Component 19 66">
<g id="room_ids">
<text id="START" transform="translate(211 353)" fill="black" xml:space="preserve" style="white-space: pre" font-family="Martian Mono" font-size="19.3473" letter-spacing="0em"><tspan x="62.9063" y="19.7389">&#x412;&#x425;&#x41e;&#x414;</tspan></text>
<text id="wardrobe" transform="translate(411 295)" fill="black" xml:space="preserve" style="white-space: pre" font-family="Martian Mono" font-size="23.3729" letter-spacing="0em"><tspan x="0" y="23.8492">&#x433;&#x430;&#x440;&#x434;&#x435;&#x440;&#x43e;&#x431;</tspan></text>
</g>
<path id="Rectangle 195" d="M376 284H499.921H587V323.445V338H376V284Z" fill="#75D3FF" fill-opacity="0.52"/>
<path id="Rectangle 217" d="M250 346H311.667H355V375.219V386H250V346Z" fill="#75D3FF" fill-opacity="0.52"/>
<path id="Rectangle 218" d="M250 284H297.571H331V329.289V346H250V284Z" fill="#75D3FF" fill-opacity="0.52"/>
<rect id="Rectangle 216" x="148" y="172" width="105" height="528" transform="rotate(-90 148 172)" fill="#D9D9D9"/>
<path id="Vector 456" d="M202 66L19 66L19 341H174" stroke="black" stroke-width="7"/>
<path id="Vector 457" d="M143 338V232M143 222V232M143 232H134" stroke="black" stroke-width="7"/>
<path id="Vector 458" d="M115 233H104V125H115H23" stroke="black" stroke-width="7"/>
<path id="Vector 459" d="M199 66V115" stroke="black" stroke-width="7"/>
<path id="Vector 460" d="M143 68V183" stroke="black" stroke-width="7"/>
<path id="Vector 461" d="M144 125H134" stroke="black" stroke-width="7"/>
<path id="Vector 462" d="M148 144H159" stroke="black" stroke-width="7"/>
<path id="Vector 464" d="M145 175L584 175" stroke="black" stroke-width="7"/>
<path id="Vector 465" d="M181 176V144" stroke="black" stroke-width="7"/>
<path id="Vector 466" d="M173 144H241V150" stroke="black" stroke-width="7"/>
<path id="Vector 467" d="M201 145V137" stroke="black" stroke-width="7"/>
<path id="Vector 468" d="M514 174V157" stroke="black" stroke-width="7"/>
<path id="Vector 469" d="M515 134V107" stroke="black" stroke-width="7"/>
<path id="Vector 470" d="M514 87V70" stroke="black" stroke-width="7"/>
<path id="Vector 471" d="M517 127H578" stroke="black" stroke-width="7"/>
<path id="Vector 472" d="M579 154V68" stroke="black" stroke-width="7"/>
<path id="Vector 473" d="M582 146H591" stroke="black" stroke-width="7"/>
<path id="Vector 474" d="M681 146H611" stroke="black" stroke-width="7"/>
<path id="Vector 475" d="M617 145V151" stroke="black" stroke-width="7"/>
<path id="Vector 476" d="M615 166V175" stroke="black" stroke-width="7"/>
<path id="Vector 477" d="M600 177H680" stroke="black" stroke-width="7"/>
<path id="Vector 478" d="M680 185V67" stroke="black" stroke-width="7"/>
<path id="Vector 479" d="M802 67L224 67" stroke="black" stroke-width="7"/>
<path id="Vector 480" d="M794 67V181" stroke="black" stroke-width="7"/>
<path id="Vector 481" d="M793 176H801" stroke="black" stroke-width="7"/>
<path id="Vector 482" d="M802 226H794" stroke="black" stroke-width="7"/>
<path id="Vector 483" d="M802 267H793" stroke="black" stroke-width="7"/>
<path id="Vector 484" d="M793 217V341" stroke="black" stroke-width="7"/>
<path id="Vector 485" d="M804 342L311 342" stroke="black" stroke-width="7"/>
<path id="Vector 486" d="M284 342H171" stroke="black" stroke-width="7"/>
<path id="Vector 487" d="M247 389V277" stroke="black" stroke-width="7"/>
<path id="Vector 488" d="M283 279H247" stroke="black" stroke-width="7"/>
<path id="Vector 489" d="M284 389H200" stroke="black" stroke-width="7"/>
<path id="Vector 490" d="M357 343V387" stroke="black" stroke-width="7"/>
<path id="Vector 491" d="M359 388H312" stroke="black" stroke-width="7"/>
<path id="Vector 492" d="M311 277H342" stroke="black" stroke-width="7"/>
<path id="Vector 493" d="M335 279V341" stroke="black" stroke-width="7"/>
<path id="Vector 494" d="M372 343V279" stroke="black" stroke-width="7"/>
<path id="Vector 495" d="M355 279H568" stroke="black" stroke-width="7"/>
<path id="Vector 496" d="M583 278H591M591 278V341M591 278H617" stroke="black" stroke-width="7"/>
<path id="Vector 497" d="M625 343V304H614V276" stroke="black" stroke-width="7"/>
<path id="Vector 498" d="M681 280V299H698" stroke="black" stroke-width="7"/>
<path id="Vector 499" d="M682 300V342" stroke="black" stroke-width="7"/>
<path id="Vector 500" d="M681 322H701" stroke="black" stroke-width="7"/>
<path id="Vector 501" d="M693 344V322" stroke="black" stroke-width="7"/>
<path id="Vector 502" d="M720 344V294" stroke="black" stroke-width="7"/>
<path id="Vector 503" d="M729 296H710" stroke="black" stroke-width="7"/>
<path id="Vector 504" d="M719 319H713" stroke="black" stroke-width="7"/>
<path id="Vector 505" d="M755 343V299" stroke="black" stroke-width="7"/>
<path id="Vector 506" d="M794 296L727 296" stroke="black" stroke-width="7"/>
<g id="staircase">
<g id="staircase 1 main_building group">
<path id="staircase 1 main_building" d="M726.4 94H746.582V156H726.4V94Z" stroke="black" stroke-width="5"/>
<path id="Vector 664" d="M790.982 154H746.582M790.982 154H746.582" stroke="black" stroke-width="3"/>
<path id="Vector 665" d="M790.982 135H746.582M790.982 135H746.582" stroke="black" stroke-width="3"/>
<path id="Vector 666" d="M790.982 144H746.582M790.982 144H746.582" stroke="black" stroke-width="3"/>
<path id="Vector 667" d="M793 126H746.582M793 126H746.582" stroke="black" stroke-width="3"/>
<path id="Vector 668" d="M790.982 107H746.582M790.982 107H746.582" stroke="black" stroke-width="3"/>
<path id="Vector 669" d="M790.982 98H746.582M790.982 98H746.582" stroke="black" stroke-width="3"/>
<path id="Vector 670" d="M790.982 117H746.582M790.982 117H746.582" stroke="black" stroke-width="3"/>
<path id="Vector 671" d="M728.418 154H682M728.418 154H682" stroke="black" stroke-width="3"/>
<path id="Vector 672" d="M728.418 135H682M728.418 135H682" stroke="black" stroke-width="3"/>
<path id="Vector 673" d="M728.418 144H682M728.418 144H682" stroke="black" stroke-width="3"/>
<path id="Vector 674" d="M728.418 126H684.018M728.418 126H684.018" stroke="black" stroke-width="3"/>
<path id="Vector 675" d="M728.418 107H682M728.418 107H682" stroke="black" stroke-width="3"/>
<path id="Vector 676" d="M728.418 98H682M728.418 98H682" stroke="black" stroke-width="3"/>
<path id="Vector 677" d="M728.418 117H682M728.418 117H682" stroke="black" stroke-width="3"/>
</g>
<g id="lifts 1 group">
<text id="lifts 1" fill="black" xml:space="preserve" style="white-space: pre" font-family="Martian Mono" font-size="23.3729" letter-spacing="0em"><tspan x="716" y="373.349">&#x43b;&#x438;&#x444;&#x442;&#x44b;</tspan></text>
</g>
</g>
<g id="staircase_fake 1 2 group">
<path id="staircase_fake 1 2" d="M32 102.2L32 91.8363L94 91.8363V102.2L32 102.2Z" stroke="black" stroke-width="5"/>
<path id="Vector 664_2" d="M92 69.0363V91.8363M92 69.0363V91.8363" stroke="black" stroke-width="3"/>
<path id="Vector 665_2" d="M73 69.0363V91.8363M73 69.0363V91.8363" stroke="black" stroke-width="3"/>
<path id="Vector 666_2" d="M82 69.0363V91.8363M82 69.0363V91.8363" stroke="black" stroke-width="3"/>
<path id="Vector 667_2" d="M64 68L64 91.8363M64 68L64 91.8363" stroke="black" stroke-width="3"/>
<path id="Vector 668_2" d="M45 69.0363L45 91.8363M45 69.0363L45 91.8363" stroke="black" stroke-width="3"/>
<path id="Vector 669_2" d="M36 69.0363L36 91.8363M36 69.0363L36 91.8363" stroke="black" stroke-width="3"/>
<path id="Vector 670_2" d="M55 69.0363L55 91.8363M55 69.0363L55 91.8363" stroke="black" stroke-width="3"/>
<path id="Vector 671_2" d="M92 101.164V125M92 101.164V125" stroke="black" stroke-width="3"/>
<path id="Vector 672_2" d="M73 101.164V125M73 101.164V125" stroke="black" stroke-width="3"/>
<path id="Vector 673_2" d="M82 101.164V125M82 101.164V125" stroke="black" stroke-width="3"/>
<path id="Vector 674_2" d="M64 101.164L64 123.964M64 101.164L64 123.964" stroke="black" stroke-width="3"/>
<path id="Vector 675_2" d="M45 101.164L45 125M45 101.164L45 125" stroke="black" stroke-width="3"/>
<path id="Vector 676_2" d="M36 101.164L36 125M36 101.164L36 125" stroke="black" stroke-width="3"/>
<path id="Vector 677_2" d="M55 101.164L55 125M55 101.164L55 125" stroke="black" stroke-width="3"/>
</g>
<rect id="Rectangle 59" x="670.839" y="333" width="22.7822" height="21" transform="rotate(179.845 670.839 333)" fill="black"/>
<rect id="Rectangle 60" x="670.839" y="305" width="22.7822" height="21" transform="rotate(179.845 670.839 305)" fill="black"/>
<text id="&#208;&#176;&#208;&#178;&#209;&#130;&#208;&#190;&#208;&#188;&#208;&#176;&#209;&#130;&#209;&#139;" fill="black" xml:space="preserve" style="white-space: pre" font-family="Martian Mono" font-size="12" letter-spacing="0em"><tspan x="620" y="272.3">&#x430;&#x432;&#x442;&#x43e;&#x43c;&#x430;&#x442;&#x44b;</tspan></text>
<rect id="Rectangle 213" x="722" y="300" width="30" height="38" fill="black"/>
<rect id="Rectangle 214" x="757" y="300" width="33" height="38" fill="black"/>
<rect id="Rectangle 215" x="23" y="338" width="105" height="118" transform="rotate(-90 23 338)" fill="#D9D9D9"/>
<rect id="Rectangle 215_2" x="22" y="233" width="105" height="79" transform="rotate(-90 22 233)" fill="#D9D9D9"/>
<text id="&#208;&#187;&#208;&#181;&#209;&#129;&#209;&#130;&#208;&#189;&#208;&#184;&#209;&#134;&#208;&#176; &#208;&#189;&#208;&#176; 2-&#208;&#185; &#209;&#141;&#209;&#130;&#208;&#176;&#208;&#182;" fill="black" xml:space="preserve" style="white-space: pre" font-family="Martian Mono" font-size="23.3729" letter-spacing="0em"><tspan x="620" y="22.8492">&#x43b;&#x435;&#x441;&#x442;&#x43d;&#x438;&#x446;&#x430;&#10;</tspan><tspan x="620" y="51.8492">&#x43d;&#x430; 2-&#x439; &#x44d;&#x442;&#x430;&#x436;</tspan></text>
<path id="graph floor 1" d="M700 250V139.5L727.5 94.5M700 250H498.75M700 250H743V272.5L719 366M498.75 250H297.5V389.5L208.5 366.5M498.75 250V263.5L417.5 314.5" stroke="#FF0000" stroke-width="3"/>
</g>
</g>
</svg>
