<svg width="1787" height="522" viewBox="0 0 1787 522" fill="none" xmlns="http://www.w3.org/2000/svg">
<g id="floor5 matmeh">
<rect width="1787" height="522" fill="white"/>
<path id="Rectangle 189" d="M1416 79H1456V177H1436V194.5H1416V79Z" fill="#3F4CFF"/>
<rect id="Rectangle 108" x="504" y="79" width="34" height="95" fill="#FF3FD9"/>
<path id="Vector 205" d="M1459.43 75.5154H1503.19V181.353H1487.92" stroke="black" stroke-width="6.10602"/>
<path id="Vector 204" d="M1436.19 198H1413V76H1458.38V180.717M1458.38 180.717H1436.19M1458.38 180.717H1466" stroke="black" stroke-width="6.10602"/>
<path id="Vector 197" d="M976 198H895" stroke="black" stroke-width="6.10602"/>
<path id="Vector 199" d="M863.073 176.266H846.791" stroke="black" stroke-width="6.10602"/>
<path id="Vector 200" d="M899.709 176.266H883.426" stroke="black" stroke-width="6.10602"/>
<path id="Vector 198" d="M897.677 76.5319H848.829" stroke="black" stroke-width="6.10602"/>
<path id="Vector 191" d="M706.693 229H727V353H539V229H687.138" stroke="black" stroke-width="6.10602"/>
<path id="Vector 192" d="M504.218 229H539V353H450V229H483.759" stroke="black" stroke-width="6.10602"/>
<path id="Vector 207" d="M482.879 177.282H500.785V76.5327H449.901V177.282H462.622" stroke="black" stroke-width="6.10602"/>
<path id="Vector 193" d="M612.386 199L631 199V76H540V199L592.739 199" stroke="black" stroke-width="6.10602"/>
<path id="Vector 206" d="M540 199V76H501V177.475H521.475" stroke="black" stroke-width="6.10602"/>
<path id="Vector 194" d="M701 199L719 199V76H631V199L680.995 199" stroke="black" stroke-width="6.10602"/>
<path id="Vector 195" d="M744.795 199L718 199V76H849V199L765.391 199" stroke="black" stroke-width="6.10602"/>
<path id="Vector 196" d="M1029.6 198H1089V77H897L897.326 198H966.57H979.723H1009.27" stroke="black" stroke-width="6.10602"/>
<path id="Vector 175" d="M1504.21 197.636V75.5154H1615.13V173.212H1536.77" stroke="black" stroke-width="6.10602"/>
<path id="Vector 180" d="M1607.12 231.219H1567.3V353.34H1662.96V231.219H1626.59" stroke="black" stroke-width="6.10602"/>
<path id="Vector 181" d="M1511.29 231.219H1471.64V353.34H1567.31V231.219H1530.76" stroke="black" stroke-width="6.10602"/>
<path id="Vector 183" d="M1347.67 231.219H1371.91V353.34H1304.74V231.219H1327.42" stroke="black" stroke-width="6.10602"/>
<path id="Vector 184" d="M1294.7 231.219H1304.74V353.34H1264.03V231.219H1274.44" stroke="black" stroke-width="6.10602"/>
<path id="Vector 185" d="M1252.63 231.219H1264.04V353.34H1223.33V231.219H1233.15" stroke="black" stroke-width="6.10602"/>
<path id="Vector 187" d="M1091.8 231H1103V353H1062V231H1071.4" stroke="black" stroke-width="6.10602"/>
<path id="Vector 190" d="M801.362 229H849V353H728V229H781.292" stroke="black" stroke-width="6.10602"/>
<path id="Vector 188" d="M1000.55 254.423H1062V353H977V228" stroke="black" stroke-width="6.10602"/>
<path id="Vector 189" d="M924.554 229.183H977.056V353.339H848.829V229.183H903.591" stroke="black" stroke-width="6.10602"/>
<path id="Vector 182" d="M1430.26 231.219H1471.65V353.34H1371.91V231.219H1409.57" stroke="black" stroke-width="6.10602"/>
<path id="Vector 178" d="M1726.32 175.24V231.335H1762.94V175.24H1726.32Z" stroke="black" stroke-width="6.10602"/>
<path id="Vector 179" d="M1763.71 231.219V353.34H1663.98V231.219H1702.94" stroke="black" stroke-width="6.10602"/>
<path id="Vector 186" d="M1126.65 231.219H1223.33V353.34H1102.22V231.219" stroke="black" stroke-width="6.10602"/>
<path id="Vector 202" d="M1100.76 198H1088V77H1168.63M1119.64 198H1168.63M1168.63 198H1236V77H1168.63M1168.63 198V148.592M1168.63 77V130.442" stroke="black" stroke-width="6.10602"/>
<path id="Vector 203" d="M1253.35 198H1236V76H1413V185.8H1357.69V198H1273.37" stroke="black" stroke-width="6.10602"/>
<path id="Vector 208" d="M104.907 289.227L448.879 149.807V353.341L104.907 490.726V289.227Z" stroke="black" stroke-width="6.10602"/>
<path id="Vector 209" d="M12.304 305.507H104.912V492.759H12.304V305.507Z" stroke="black" stroke-width="6.10602"/>
<path id="Vector 281" d="M1642.4 175L1616 175V76H1687V175L1662.59 175" stroke="black" stroke-width="6.10602"/>
<path id="Vector 282" d="M1703.51 175L1687 175V76H1763V175L1740.79 175" stroke="black" stroke-width="6.10602"/>
<rect id="Rectangle 60" x="1543.11" y="124" width="34.0569" height="21" transform="rotate(179.845 1543.11 124)" fill="black"/>
<rect id="Rectangle 59" x="1543.11" y="148.092" width="34.0569" height="21" transform="rotate(179.845 1543.11 148.092)" fill="black"/>
<g id="room_ids">
<text id="532" fill="black" xml:space="preserve" style="white-space: pre" font-family="Martian Mono" font-size="23.3729" letter-spacing="0em"><tspan x="1395.43" y="300.849">532</tspan></text>
<text id="534" fill="black" xml:space="preserve" style="white-space: pre" font-family="Martian Mono" font-size="23.3729" letter-spacing="0em"><tspan x="1492" y="300.849">534</tspan></text>
<text id="509" fill="black" xml:space="preserve" style="white-space: pre" font-family="Martian Mono" font-size="23.3729" letter-spacing="0em"><tspan x="968.178" y="136.761">509</tspan></text>
<text id="513" fill="black" xml:space="preserve" style="white-space: pre" font-family="Martian Mono" font-size="23.3729" letter-spacing="0em"><tspan x="1296.85" y="136.761">513</tspan></text>
<text id="515" fill="black" xml:space="preserve" style="white-space: pre" font-family="Martian Mono" font-size="23.3729" letter-spacing="0em"><tspan x="1627.01" y="136.761">515</tspan></text>
<text id="517" fill="black" xml:space="preserve" style="white-space: pre" font-family="Martian Mono" font-size="23.3729" letter-spacing="0em"><tspan x="1700.94" y="136.761">517</tspan></text>
<text id="lifts 5" transform="translate(1546.07 143.038) rotate(-90.1555)" fill="black" xml:space="preserve" style="white-space: pre" font-family="Martian Mono" font-size="11" letter-spacing="0em"><tspan x="0" y="11.4">&#x43b;&#x438;&#x444;&#x442;&#x44b;</tspan></text>
<text id="wc_m 5" fill="white" xml:space="preserve" style="white-space: pre" font-family="Martian Mono" font-size="32" letter-spacing="0em"><tspan x="1424" y="140.3">&#x43c;</tspan></text>
<text id="511" fill="black" xml:space="preserve" style="white-space: pre" font-family="Martian Mono" font-size="23.3729" letter-spacing="0em"><tspan x="1106" y="137.849">511</tspan></text>
<text id="522" fill="black" xml:space="preserve" style="white-space: pre" font-family="Martian Mono" font-size="23.3729" letter-spacing="0em"><tspan x="888" y="301.849">522</tspan></text>
<text id="514" fill="black" xml:space="preserve" style="white-space: pre" font-family="Martian Mono" font-size="23.3729" letter-spacing="0em"><tspan x="606" y="302.849">514</tspan></text>
<text id="501" fill="black" xml:space="preserve" style="white-space: pre" font-family="Martian Mono" font-size="23.3729" letter-spacing="0em"><tspan x="561" y="144.849">501</tspan></text>
<text id="505" fill="black" xml:space="preserve" style="white-space: pre" font-family="Martian Mono" font-size="23.3729" letter-spacing="0em"><tspan x="652" y="145.849">505</tspan></text>
<text id="507" fill="black" xml:space="preserve" style="white-space: pre" font-family="Martian Mono" font-size="23.3729" letter-spacing="0em"><tspan x="759" y="146.349">507</tspan></text>
<text id="524a" fill="black" xml:space="preserve" style="white-space: pre" font-family="Martian Mono" font-size="23.3729" letter-spacing="0em"><tspan x="989" y="315.349">524a</tspan></text>
<text id="524" transform="matrix(0 -1 1 0 1068 317)" fill="black" xml:space="preserve" style="white-space: pre" font-family="Martian Mono" font-size="23.3729" letter-spacing="0em"><tspan x="0" y="24.3492">524</tspan></text>
<text id="526" fill="black" xml:space="preserve" style="white-space: pre" font-family="Martian Mono" font-size="23.3729" letter-spacing="0em"><tspan x="1138" y="300.349">526</tspan></text>
<text id="528" transform="matrix(0 -1 1 0 1229 314)" fill="black" xml:space="preserve" style="white-space: pre" font-family="Martian Mono" font-size="23.3729" letter-spacing="0em"><tspan x="0" y="24.3492">528</tspan></text>
<text id="530a" transform="matrix(0 -1 1 0 1270 323)" fill="black" xml:space="preserve" style="white-space: pre" font-family="Martian Mono" font-size="23.3729" letter-spacing="0em"><tspan x="0" y="24.3492">530a</tspan></text>
<text id="530" transform="matrix(0 -1 1 0 1324 317)" fill="black" xml:space="preserve" style="white-space: pre" font-family="Martian Mono" font-size="23.3729" letter-spacing="0em"><tspan x="0" y="24.3492">530</tspan></text>
<text id="538" fill="black" xml:space="preserve" style="white-space: pre" font-family="Martian Mono" font-size="23.3729" letter-spacing="0em"><tspan x="1591" y="301.349">538</tspan></text>
<text id="540" fill="black" xml:space="preserve" style="white-space: pre" font-family="Martian Mono" font-size="23.3729" letter-spacing="0em"><tspan x="1689" y="301.349">540</tspan></text>
<text id="wc_w 5" fill="white" xml:space="preserve" style="white-space: pre" font-family="Martian Mono" font-size="32" letter-spacing="0em"><tspan x="511" y="138.8">&#x436;</tspan></text>
</g>
<rect id="Rectangle 187" x="15" y="308" width="87" height="182" fill="#D9D9D9"/>
<rect id="Rectangle 190" x="730" y="232" width="116" height="118" fill="#D9D9D9"/>
<rect id="Rectangle 191" x="453" y="232" width="83" height="118" fill="#D9D9D9"/>
<path id="Rectangle 188" d="M108 291L445.5 155V351.5L108 486V291Z" fill="#D9D9D9"/>
<g id="staircase">
<g id="staircase 5 1 group">
<path id="staircase 5 1" d="M470 96H480V158H470V96Z" stroke="black" stroke-width="5"/>
<path id="Vector 664" d="M502 156H480M502 156H480" stroke="black" stroke-width="3"/>
<path id="Vector 665" d="M502 137H480M502 137H480" stroke="black" stroke-width="3"/>
<path id="Vector 666" d="M502 146H480M502 146H480" stroke="black" stroke-width="3"/>
<path id="Vector 667" d="M503 128H480M503 128H480" stroke="black" stroke-width="3"/>
<path id="Vector 668" d="M502 109H480M502 109H480" stroke="black" stroke-width="3"/>
<path id="Vector 669" d="M502 100H480M502 100H480" stroke="black" stroke-width="3"/>
<path id="Vector 670" d="M502 119H480M502 119H480" stroke="black" stroke-width="3"/>
<path id="Vector 671" d="M471 156H448M471 156H448" stroke="black" stroke-width="3"/>
<path id="Vector 672" d="M471 137H448M471 137H448" stroke="black" stroke-width="3"/>
<path id="Vector 673" d="M471 146H448M471 146H448" stroke="black" stroke-width="3"/>
<path id="Vector 674" d="M471 128H449M471 128H449" stroke="black" stroke-width="3"/>
<path id="Vector 675" d="M471 109H448M471 109H448" stroke="black" stroke-width="3"/>
<path id="Vector 676" d="M471 100H448M471 100H448" stroke="black" stroke-width="3"/>
<path id="Vector 677" d="M471 119H448M471 119H448" stroke="black" stroke-width="3"/>
</g>
<g id="staircase 5 2 group">
<path id="staircase 5 2" d="M868.8 96H878.255V158H868.8V96Z" stroke="black" stroke-width="5"/>
<path id="Vector 664_2" d="M899.055 156H878.255M899.055 156H878.255" stroke="black" stroke-width="3"/>
<path id="Vector 665_2" d="M899.055 137H878.255M899.055 137H878.255" stroke="black" stroke-width="3"/>
<path id="Vector 666_2" d="M899.055 146H878.255M899.055 146H878.255" stroke="black" stroke-width="3"/>
<path id="Vector 667_2" d="M900 128H878.255M900 128H878.255" stroke="black" stroke-width="3"/>
<path id="Vector 668_2" d="M899.055 109H878.255M899.055 109H878.255" stroke="black" stroke-width="3"/>
<path id="Vector 669_2" d="M899.055 100H878.255M899.055 100H878.255" stroke="black" stroke-width="3"/>
<path id="Vector 670_2" d="M899.055 119H878.255M899.055 119H878.255" stroke="black" stroke-width="3"/>
<path id="Vector 671_2" d="M869.745 156H848M869.745 156H848" stroke="black" stroke-width="3"/>
<path id="Vector 672_2" d="M869.745 137H848M869.745 137H848" stroke="black" stroke-width="3"/>
<path id="Vector 673_2" d="M869.745 146H848M869.745 146H848" stroke="black" stroke-width="3"/>
<path id="Vector 674_2" d="M869.745 128H848.945M869.745 128H848.945" stroke="black" stroke-width="3"/>
<path id="Vector 675_2" d="M869.745 109H848M869.745 109H848" stroke="black" stroke-width="3"/>
<path id="Vector 676_2" d="M869.745 100H848M869.745 100H848" stroke="black" stroke-width="3"/>
<path id="Vector 677_2" d="M869.745 119H848M869.745 119H848" stroke="black" stroke-width="3"/>
</g>
<g id="staircase 5 3 group">
<path id="staircase 5 3" d="M1477.4 97H1485.76V159H1477.4V97Z" stroke="black" stroke-width="5"/>
<path id="Vector 664_3" d="M1504.16 157H1485.76M1504.16 157H1485.76" stroke="black" stroke-width="3"/>
<path id="Vector 665_3" d="M1504.16 138H1485.76M1504.16 138H1485.76" stroke="black" stroke-width="3"/>
<path id="Vector 666_3" d="M1504.16 147H1485.76M1504.16 147H1485.76" stroke="black" stroke-width="3"/>
<path id="Vector 667_3" d="M1505 129H1485.76M1505 129H1485.76" stroke="black" stroke-width="3"/>
<path id="Vector 668_3" d="M1504.16 110H1485.76M1504.16 110H1485.76" stroke="black" stroke-width="3"/>
<path id="Vector 669_3" d="M1504.16 101H1485.76M1504.16 101H1485.76" stroke="black" stroke-width="3"/>
<path id="Vector 670_3" d="M1504.16 120H1485.76M1504.16 120H1485.76" stroke="black" stroke-width="3"/>
<path id="Vector 671_3" d="M1478.24 157H1459M1478.24 157H1459" stroke="black" stroke-width="3"/>
<path id="Vector 672_3" d="M1478.24 138H1459M1478.24 138H1459" stroke="black" stroke-width="3"/>
<path id="Vector 673_3" d="M1478.24 147H1459M1478.24 147H1459" stroke="black" stroke-width="3"/>
<path id="Vector 674_3" d="M1478.24 129H1459.84M1478.24 129H1459.84" stroke="black" stroke-width="3"/>
<path id="Vector 675_3" d="M1478.24 110H1459M1478.24 110H1459" stroke="black" stroke-width="3"/>
<path id="Vector 676_3" d="M1478.24 101H1459M1478.24 101H1459" stroke="black" stroke-width="3"/>
<path id="Vector 677_3" d="M1478.24 120H1459M1478.24 120H1459" stroke="black" stroke-width="3"/>
</g>
</g>
<text id="&#209;&#129;&#208;&#191;&#209;&#131;&#209;&#129;&#208;&#186; &#208;&#178; &#208;&#179;&#208;&#176;&#209;&#128;&#208;&#180;&#208;&#181;&#209;&#128;&#208;&#190;&#208;&#177;" fill="black" xml:space="preserve" style="white-space: pre" font-family="Martian Mono" font-size="23.3729" letter-spacing="0em"><tspan x="1328" y="55.8492">&#x441;&#x43f;&#x443;&#x441;&#x43a; &#x432; &#x433;&#x430;&#x440;&#x434;&#x435;&#x440;&#x43e;&#x431;</tspan></text>
<path id="Rectangle 187_2" d="M900 80H1008.65H1085V164.004V195H900V80Z" fill="#75D3FF" fill-opacity="0.52"/>
<path id="Rectangle 192" d="M722 79H794.825H846V164.465V196H722V79Z" fill="#75D3FF" fill-opacity="0.52"/>
<path id="Rectangle 193" d="M634 79H681.571H715V164.465V196H634V79Z" fill="#75D3FF" fill-opacity="0.52"/>
<path id="Rectangle 195" d="M542 232H648.889H724V318.195V350H542V232Z" fill="#75D3FF" fill-opacity="0.52"/>
<path id="Rectangle 196" d="M852 232H923.651H974V318.195V350H852V232Z" fill="#75D3FF" fill-opacity="0.52"/>
<path id="Rectangle 194" d="M543 79H592.921H628V164.465V196H543V79Z" fill="#75D3FF" fill-opacity="0.52"/>
<path id="Rectangle 197" d="M980 257H1026.4H1059V324.934V350H980V257Z" fill="#75D3FF" fill-opacity="0.52"/>
<path id="Rectangle 198" d="M1092 80H1174.81H1233V164.004V195H1092V80Z" fill="#75D3FF" fill-opacity="0.52"/>
<path id="Rectangle 200" d="M1619 79H1657.17H1684V146.934V172H1619V79Z" fill="#75D3FF" fill-opacity="0.52"/>
<path id="Rectangle 201" d="M1690 79H1731.11H1760V146.934V172H1690V79Z" fill="#75D3FF" fill-opacity="0.52"/>
<path id="Rectangle 202" d="M1475 234H1527.27H1564V318.734V350H1475V234Z" fill="#75D3FF" fill-opacity="0.52"/>
<path id="Rectangle 205" d="M1375 234H1430.21H1469V318.734V350H1375V234Z" fill="#75D3FF" fill-opacity="0.52"/>
<path id="Rectangle 199" d="M1239 79H1339.43H1410V163.734V183H1354.5V195H1239V79Z" fill="#75D3FF" fill-opacity="0.52"/>
<path id="Rectangle 203" d="M1065 234H1084.97H1099V318.734V350H1065V234Z" fill="#75D3FF" fill-opacity="0.52"/>
<path id="Rectangle 204" d="M1106 234H1172.95H1220V318.734V350H1106V234Z" fill="#75D3FF" fill-opacity="0.52"/>
<path id="Rectangle 207" d="M1267 234H1287.56H1302V318.734V350H1267V234Z" fill="#75D3FF" fill-opacity="0.52"/>
<path id="Rectangle 206" d="M1308 234H1343.83H1369V318.734V350H1308V234Z" fill="#75D3FF" fill-opacity="0.52"/>
<path id="Rectangle 208" d="M1226 234H1246.56H1261V318.734V350H1226V234Z" fill="#75D3FF" fill-opacity="0.52"/>
<path id="Rectangle 209" d="M1570 234H1622.86H1660V318.734V350H1570V234Z" fill="#75D3FF" fill-opacity="0.52"/>
<path id="Rectangle 210" d="M1667 234H1721.62H1760V318.734V350H1667V234Z" fill="#75D3FF" fill-opacity="0.52"/>
<path id="graph floor 5" d="M1712 220H1652M1712 220V183V133M1712 220V238.5L1697.5 314.5M600.5 220H471V186.5L464 92M600.5 220V207L585.5 139M600.5 220H697M697 220V240L628.5 312.5M697 220H756M697 220L691 209L656.5 136.5M1449 220V200.5M1449 220H1420M1449 220H1477M756 220V209L766 136.5M756 220H874.5M914 220V238.5L898.5 312.5M914 220H989M914 220H874.5M989 220V263.5L995 312.5M989 220H1019M1082.5 220V238.5V328M1082.5 220H1110.5M1082.5 220H1019M1118 220V238.5L1146 312.5M1118 220H1110.5M1118 220H1243M1110.5 220V206V135M1019 220V206L977 135M1263.5 220V206L1306 135.5M1263.5 220H1243M1263.5 220H1287M1243 220V238.5V328M1287 220V238.5V328M1287 220H1338.5M1338.5 220V238.5V328M1338.5 220H1420M1420 220V238.5L1404 314.5M1521.5 220V238.5L1499.5 314.5M1521.5 220H1616.75M1521.5 220V183L1554.5 133M1521.5 220H1477M1616.75 220V238.5L1599 314.5M1616.75 220H1652M1652 220V183L1635 133M1477 220V189L1470 92M874.5 220V185L862.5 93.5M529 219V177L520.5 130M1449.5 201L1435 189V131.5" stroke="#FF0000" stroke-width="3"/>
</g>
</svg>
