<svg width="2244" height="2350" viewBox="0 0 2244 2350" fill="none" xmlns="http://www.w3.org/2000/svg" xmlns:xlink="http://www.w3.org/1999/xlink">
<g id="floor 3 kuibysheva">
<rect width="2244" height="2350" fill="white"/>
<g id="Component 65 83.5">
<path id="graph floor 3 " d="M145 1907.5H178.5M145 1907.5V1927M145 1907.5C145 1907.5 145 1889.06 145 1877.25M145 1927H117L98.5 1909.5M145 1927V1970.5M145 1990.5H114L98.5 1968.5M145 1990.5V2032.5M145 1990.5V1970.5M145 2032.5H176L192 2016.5M145 2032.5V2040M145 2040H117L100.5 2029.5M145 2040V2092M145 2092H122.5H74M145 2092V2105.5M145 2105.5H176L192 2087M145 2105.5V2118M145 2118H122.5L79 2122M145 2118V2164M145 2164H122.5L97.5 2148M145 2164H176L192 2148M145 2164V2224.5M145 2224.5H169.5V2211.5M145 2224.5V1970.5M145 1970.5H571M571 1970.5V1914.5M571 1970.5H741M571 1914.5H499.5L441 1867M571 1914.5V1896L546 1867M571 1914.5H636.5L622 1867M741 1970.5V1887L724.5 1867M741 1970.5H973M973 1970.5V1887L952.5 1867M973 1970.5H1023.5M1023.5 1970.5V1835.5L927.5 1792.5M1023.5 1970.5H1055.5M1055.5 1970.5V1925H1091L1148.5 1867M1055.5 1970.5H1334.5M1334.5 1970.5V1915L1226 1867M1334.5 1970.5H1502.5M1502.5 1970.5V1915L1486 1865.5M1502.5 1970.5H1672M1672 1970.5V1925L1661.5 1910M1672 1970.5H1773.5V1905.5M1773.5 1905.5H1847H1857M1773.5 1905.5V1834V1793.5M1773.5 1793.5H1937L1995 1806.5M1773.5 1793.5H1754.5V1728M1754.5 1728H1832L1857 1733M1754.5 1728V1526.5M1754.5 1526.5H1807L1832 1510.5M1754.5 1526.5V1421M1754.5 1421H1832V1368.5M1754.5 1421V1196M1754.5 1196H1675L1621 1176.5M1754.5 1196V1041V989M1754.5 989H1822.5H1855M1754.5 989V879.5M1754.5 879.5H1822.5H1852.5M1754.5 879.5V816.5M1754.5 816.5H1822.5L1852.5 785M1754.5 816.5V611.5M1754.5 611.5H1822.5L1852.5 615M1754.5 611.5V453M1754.5 453H1822.5L1835.5 400.5M1754.5 453V427M1754.5 427H1672L1630.5 413.5M1754.5 427V355M1754.5 355H1710L1689 349.5M1754.5 355V283.5H1733H1620.5M1620.5 283.5V233.5L1626 184M1620.5 283.5H1525.5M1525.5 283.5V233.5L1496.5 184M1525.5 283.5H1375M1375 283.5V233.5L1319.5 184M1375 283.5H1192V243H1174V133.5L881 342.5M145 1877.25C145 1865.44 145 1847 145 1847H178.5L240 1842M145 1877.25H80.5L17 1752" stroke="#FF0000" stroke-width="2"/>
<g id="staircase">
<g id="staircase 3 kontur">
<text id="staircase 3 kontur_2" fill="black" xml:space="preserve" style="white-space: pre" font-family="Martian Mono" font-size="23.3729" letter-spacing="0em"><tspan x="875" y="350.849">&#x441;&#x43f;&#x443;&#x441;&#x43a; &#x43a; &#x43a;&#x43e;&#x43d;&#x442;&#x443;&#x440;&#x43e;&#x432;&#x441;&#x43a;&#x438;&#x43c; &#10;</tspan><tspan x="875" y="379.849">&#x43a;&#x43b;&#x430;&#x441;&#x441;&#x430;&#x43c;</tspan></text>
</g>
<g id="staircase 3 main_building group">
<text id="staircase 3 main_building" fill="black" xml:space="preserve" style="white-space: pre" font-family="Martian Mono" font-size="23.3729" letter-spacing="0em"><tspan x="10" y="1759.85">&#x441;&#x43f;&#x443;&#x441;&#x43a; &#x43a; </tspan><tspan x="10" y="1788.85">&#x433;&#x43b;&#x430;&#x432;&#x43d;&#x43e;&#x43c;&#x443; &#x432;&#x445;&#x43e;&#x434;&#x443;</tspan></text>
</g>
<g id="lifts 3 group">
<text id="lifts 3" fill="black" xml:space="preserve" style="white-space: pre" font-family="Martian Mono" font-size="23.3729" letter-spacing="0em"><tspan x="232" y="1846.85">&#x43b;&#x438;&#x444;&#x442;&#x44b;</tspan></text>
</g>
</g>
<g id="room_ids">
<text id="351" fill="black" xml:space="preserve" style="white-space: pre" font-family="Martian Mono" font-size="23.3729" letter-spacing="0em"><tspan x="435" y="1874.35">351</tspan></text>
<text id="352" fill="black" xml:space="preserve" style="white-space: pre" font-family="Martian Mono" font-size="23.3729" letter-spacing="0em"><tspan x="542" y="1874.35">352</tspan></text>
<text id="353" fill="black" xml:space="preserve" style="white-space: pre" font-family="Martian Mono" font-size="23.3729" letter-spacing="0em"><tspan x="611" y="1874.35">353</tspan></text>
<text id="354" fill="black" xml:space="preserve" style="white-space: pre" font-family="Martian Mono" font-size="23.3729" letter-spacing="0em"><tspan x="718" y="1874.35">354</tspan></text>
<text id="356" fill="black" xml:space="preserve" style="white-space: pre" font-family="Martian Mono" font-size="23.3729" letter-spacing="0em"><tspan x="948" y="1874.35">356</tspan></text>
<text id="357" fill="black" xml:space="preserve" style="white-space: pre" font-family="Martian Mono" font-size="23.3729" letter-spacing="0em"><tspan x="1141" y="1874.35">357</tspan></text>
<text id="358" fill="black" xml:space="preserve" style="white-space: pre" font-family="Martian Mono" font-size="23.3729" letter-spacing="0em"><tspan x="1219" y="1874.35">358</tspan></text>
<text id="359" fill="black" xml:space="preserve" style="white-space: pre" font-family="Martian Mono" font-size="23.3729" letter-spacing="0em"><tspan x="1479" y="1874.35">359</tspan></text>
<text id="360" fill="black" xml:space="preserve" style="white-space: pre" font-family="Martian Mono" font-size="23.3729" letter-spacing="0em"><tspan x="1653" y="1918.35">360</tspan></text>
<text id="361" fill="black" xml:space="preserve" style="white-space: pre" font-family="Martian Mono" font-size="23.3729" letter-spacing="0em"><tspan x="1849" y="1909.35">361</tspan></text>
<text id="363" fill="black" xml:space="preserve" style="white-space: pre" font-family="Martian Mono" font-size="23.3729" letter-spacing="0em"><tspan x="1824" y="1520.35">363</tspan></text>
<text id="365" fill="black" xml:space="preserve" style="white-space: pre" font-family="Martian Mono" font-size="23.3729" letter-spacing="0em"><tspan x="1824" y="1378.35">365</tspan></text>
<text id="366" fill="black" xml:space="preserve" style="white-space: pre" font-family="Martian Mono" font-size="23.3729" letter-spacing="0em"><tspan x="1830" y="999.349">366</tspan></text>
<text id="367" fill="black" xml:space="preserve" style="white-space: pre" font-family="Martian Mono" font-size="23.3729" letter-spacing="0em"><tspan x="1830" y="885.349">367</tspan></text>
<text id="368" fill="black" xml:space="preserve" style="white-space: pre" font-family="Martian Mono" font-size="23.3729" letter-spacing="0em"><tspan x="1830" y="793.349">368</tspan></text>
<text id="369" fill="black" xml:space="preserve" style="white-space: pre" font-family="Martian Mono" font-size="23.3729" letter-spacing="0em"><tspan x="1830" y="624.349">369</tspan></text>
<text id="370" fill="black" xml:space="preserve" style="white-space: pre" font-family="Martian Mono" font-size="23.3729" letter-spacing="0em"><tspan x="1830" y="410.349">370</tspan></text>
<text id="377" fill="black" xml:space="preserve" style="white-space: pre" font-family="Martian Mono" font-size="23.3729" letter-spacing="0em"><tspan x="1610" y="421.349">377</tspan></text>
<text id="373" fill="black" xml:space="preserve" style="white-space: pre" font-family="Martian Mono" font-size="23.3729" letter-spacing="0em"><tspan x="1601" y="194.349">373</tspan></text>
<text id="374" fill="black" xml:space="preserve" style="white-space: pre" font-family="Martian Mono" font-size="23.3729" letter-spacing="0em"><tspan x="1472" y="194.349">374</tspan></text>
<text id="375" fill="black" xml:space="preserve" style="white-space: pre" font-family="Martian Mono" font-size="23.3729" letter-spacing="0em"><tspan x="1295" y="194.349">375</tspan></text>
<text id="stolovaya" fill="black" xml:space="preserve" style="white-space: pre" font-family="Martian Mono" font-size="23.3729" letter-spacing="0em"><tspan x="1987" y="1810.85">&#x441;&#x43f;&#x443;&#x441;&#x43a; &#10;</tspan><tspan x="1987" y="1839.85">&#x432; &#x441;&#x442;&#x43e;&#x43b;&#x43e;&#x432;&#x443;&#x44e;</tspan></text>
<text id="362" fill="black" xml:space="preserve" style="white-space: pre" font-family="Martian Mono" font-size="23.3729" letter-spacing="0em"><tspan x="1849" y="1741.35">362</tspan></text>
<text id="dekanat" fill="black" xml:space="preserve" style="white-space: pre" font-family="Martian Mono" font-size="23.3729" letter-spacing="0em"><tspan x="1564" y="1176.85">&#x434;&#x435;&#x43a;&#x430;&#x43d;&#x430;&#x442;</tspan></text>
<text id="330" opacity="0.5" transform="matrix(0 1 -1 0 114.5 1901.5)" fill="black" xml:space="preserve" style="white-space: pre" font-family="Martian Mono" font-size="23.3729" letter-spacing="0em"><tspan x="0" y="23.8492">330</tspan></text>
<text id="313" opacity="0.5" transform="matrix(0 1 -1 0 208 1879.5)" fill="black" xml:space="preserve" style="white-space: pre" font-family="Martian Mono" font-size="23.3729" letter-spacing="0em"><tspan x="0" y="23.8492">313</tspan></text>
<text id="311" opacity="0.5" transform="matrix(0 1 -1 0 205.5 2010.5)" fill="black" xml:space="preserve" style="white-space: pre" font-family="Martian Mono" font-size="23.3729" letter-spacing="0em"><tspan x="0" y="23.8492">311</tspan></text>
<text id="315" opacity="0.5" transform="matrix(0 1 -1 0 205.5 2080.5)" fill="black" xml:space="preserve" style="white-space: pre" font-family="Martian Mono" font-size="23.3729" letter-spacing="0em"><tspan x="0" y="23.8492">315</tspan></text>
<text id="317" opacity="0.5" transform="matrix(0 1 -1 0 205.5 2141.5)" fill="black" xml:space="preserve" style="white-space: pre" font-family="Martian Mono" font-size="23.3729" letter-spacing="0em"><tspan x="0" y="23.8492">317</tspan></text>
<text id="332" opacity="0.5" transform="matrix(0 1 -1 0 113.5 1961.5)" fill="black" xml:space="preserve" style="white-space: pre" font-family="Martian Mono" font-size="23.3729" letter-spacing="0em"><tspan x="0" y="23.8492">332</tspan></text>
<text id="334" opacity="0.5" transform="matrix(0 1 -1 0 113.5 2021.5)" fill="black" xml:space="preserve" style="white-space: pre" font-family="Martian Mono" font-size="23.3729" letter-spacing="0em"><tspan x="0" y="23.8492">334</tspan></text>
<text id="338" opacity="0.5" transform="matrix(0 1 -1 0 112.5 2141.5)" fill="black" xml:space="preserve" style="white-space: pre" font-family="Martian Mono" font-size="23.3729" letter-spacing="0em"><tspan x="0" y="23.8492">338</tspan></text>
<text id="336" opacity="0.5" fill="black" xml:space="preserve" style="white-space: pre" font-family="Martian Mono" font-size="23.3729" letter-spacing="0em"><tspan x="73" y="2131.85">336</tspan></text>
<text id="334a" opacity="0.5" fill="black" xml:space="preserve" style="white-space: pre" font-family="Martian Mono" font-size="23.3729" letter-spacing="0em"><tspan x="65.5" y="2099.35">334a</tspan></text>
<text id="319" opacity="0.5" fill="black" xml:space="preserve" style="white-space: pre" font-family="Martian Mono" font-size="23.3729" letter-spacing="0em"><tspan x="163.5" y="2220.35">319</tspan></text>
<text id="wc_w 3" fill="white" xml:space="preserve" style="white-space: pre" font-family="Martian Mono" font-size="32" letter-spacing="0em"><tspan x="1678" y="358.8">&#x436;</tspan></text>
<text id="library" fill="black" xml:space="preserve" style="white-space: pre" font-family="Martian Mono" font-size="23" letter-spacing="0em"><tspan x="919" y="1797.7">&#x441;&#x43f;&#x443;&#x441;&#x43a; &#x432; &#x431;&#x438;&#x431;&#x43b;&#x438;&#x43e;&#x442;&#x435;&#x43a;&#x443;</tspan></text>
</g>
</g>
</g>
</svg>
