<svg width="788" height="483" viewBox="0 0 788 483" fill="none" xmlns="http://www.w3.org/2000/svg">
<g id="floor 1k kuibysheva">
<rect width="483" height="788" transform="matrix(0 1 -1 0 788 0)" fill="white"/>
<g id="Component 29 82">
<g id="room_ids">
<text id="178" fill="black" xml:space="preserve" style="white-space: pre" font-family="Martian Mono" font-size="23.3729" letter-spacing="0em"><tspan x="619.25" y="172.849">178</tspan></text>
<text id="179" fill="black" xml:space="preserve" style="white-space: pre" font-family="Martian Mono" font-size="23.3729" letter-spacing="0em"><tspan x="570.25" y="360.849">179</tspan></text>
<text id="180" fill="black" xml:space="preserve" style="white-space: pre" font-family="Martian Mono" font-size="23.3729" letter-spacing="0em"><tspan x="136.25" y="346.849">180</tspan></text>
<text id="181" fill="black" xml:space="preserve" style="white-space: pre" font-family="Martian Mono" font-size="23.3729" letter-spacing="0em"><tspan x="136.25" y="168.849">181</tspan></text>
</g>
<g id="no_use 1">
<path id="Rectangle 218" d="M525.25 86H652.694H742.25V197.031V238H525.25V86Z" fill="#75D3FF" fill-opacity="0.52"/>
<path id="Rectangle 219" d="M445.25 241H621.44H745.25V391.477V447H445.25V241Z" fill="#75D3FF" fill-opacity="0.52"/>
<path id="Rectangle 220" d="M31.25 244H212.139H339.25V394.477V450H31.25V244Z" fill="#75D3FF" fill-opacity="0.52"/>
<path id="Rectangle 221" d="M31.25 89H178.663H282.25V197.84V238H31.25V89Z" fill="#75D3FF" fill-opacity="0.52"/>
<path id="Rectangle 222" d="M346 372H399.444H437V427.516V448H346V372Z" fill="#808080" fill-opacity="0.52"/>
<path id="Vector 422" d="M494 85.5H520M742.5 85.5L520 85.5M520 85.5V160" stroke="black" stroke-width="7"/>
<path id="Vector 418" d="M745.5 82V446.5H428V469.5M430.75 449.5H391.25H337.75" stroke="black" stroke-width="7"/>
<path id="Vector 426" d="M344.5 265.75H438.001" stroke="black" stroke-width="3"/>
<path id="Vector 427" d="M438.5 272.5H344.5" stroke="black" stroke-width="3"/>
<path id="Vector 428" d="M344.5 280.5H437.5" stroke="black" stroke-width="3"/>
<path id="Vector 429" d="M438.5 288.5H344.5" stroke="black" stroke-width="3"/>
<path id="Vector 430" d="M344.5 295.5H440.5" stroke="black" stroke-width="3"/>
<path id="Vector 431" d="M439.5 302.5H344.5" stroke="black" stroke-width="3"/>
<path id="Vector 432" d="M344.5 310.5H438.5" stroke="black" stroke-width="3"/>
<path id="Vector 433" d="M439.5 318.5H344.5" stroke="black" stroke-width="3"/>
<path id="Vector 434" d="M344.5 327.5H438.5" stroke="black" stroke-width="3"/>
<path id="Vector 435" d="M438.5 336.5H344.5" stroke="black" stroke-width="3"/>
<path id="Vector 436" d="M444 111V149" stroke="black" stroke-width="3"/>
<path id="Vector 437" d="M436 150.5V111" stroke="black" stroke-width="3"/>
<path id="Vector 438" d="M426.5 110.5V149" stroke="black" stroke-width="3"/>
<path id="Vector 439" d="M417.75 151.502V110.499" stroke="black" stroke-width="3"/>
<path id="Vector 440" d="M409 111V150" stroke="black" stroke-width="3"/>
<path id="Vector 441" d="M401.5 150.5V110.5" stroke="black" stroke-width="3"/>
<path id="Vector 442" d="M444.25 85.478V111.022" stroke="black" stroke-width="5"/>
<path id="Vector 443" d="M399.25 109L442.25 109" stroke="black" stroke-width="5"/>
<path id="Vector 444" d="M402 151H518" stroke="black" stroke-width="5"/>
<path id="Vector 419" d="M451 239.5H440.5V448" stroke="black" stroke-width="7"/>
<path id="Vector 446" d="M451 239.5H440.5V448" stroke="black" stroke-width="7"/>
<path id="Vector 420" d="M350.5 469.5V449.5H29V84L451 84" stroke="black" stroke-width="7"/>
<path id="Vector 421" d="M283.5 148V241H30H293" stroke="black" stroke-width="7"/>
<path id="Vector 423" d="M521 204V238H494H744" stroke="black" stroke-width="7"/>
<path id="Vector 424" d="M440.503 371.25H418.497" stroke="black" stroke-width="7"/>
<path id="Vector 425" d="M344.5 371.5H371.5" stroke="black" stroke-width="7"/>
<path id="Vector 445" d="M282 86V107.5" stroke="black" stroke-width="7"/>
<path id="Vector 637" d="M343.25 446V241H332.25" stroke="black" stroke-width="7"/>
<path id="Vector 882" d="M368.75 371.5H420.75" stroke="#808080" stroke-width="7"/>
</g>
<path id="graph floor 1" d="M136.25 159.5L274.25 128H311.75M311.75 128H365.75H471.75V86L326.5 28M311.75 128V189.75M136.25 336.5L311.75 251.5V189.75M311.75 189.75H471.75M622.25 159.5L543.75 189.75H471.75M471.75 189.75V251.5L575.25 353.5" stroke="#FF0000" stroke-width="3"/>
<g id="staircase">
<g id="staircase 1 kontur group">
<text id="staircase 1 kontur" fill="black" xml:space="preserve" style="white-space: pre" font-family="Martian Mono" font-size="23.3729" letter-spacing="0em"><tspan x="323" y="38.3492">&#x43f;&#x43e;&#x434;&#x44a;&#x451;&#x43c; &#x43d;&#x430; 2-&#x439; &#x44d;&#x442;&#x430;&#x436; </tspan><tspan x="323" y="67.3492">&#x43a;&#x43e;&#x43d;&#x442;&#x443;&#x440;&#x43e;&#x432;&#x441;&#x43a;&#x438;&#x445; &#x43a;&#x43b;&#x430;&#x441;&#x441;&#x43e;&#x432;</tspan></text>
</g>
</g>
</g>
</g>
</svg>
