<svg width="1602" height="173" viewBox="0 0 1602 173" fill="none" xmlns="http://www.w3.org/2000/svg">
<path d="M1601.5 37.5V0M1601.5 37.5V56.5M1601.5 37.5H1538M1538 37.5V56.5M1538 37.5H1525M1538 37.5H1499.5M1525 37.5V0M1525 37.5H1499.5M1499.5 37.5V56.5M1499.5 37.5H1459.5M1459.5 37.5V56.5M1459.5 37.5H1448M1448 37.5V0M1448 37.5H1420.5M1420.5 37.5V56.5M1420.5 37.5H1349M1349 37.5V5M1349 37.5H1322M1322 37.5V14.5H1300.5M1322 37.5V56.5M1322 37.5H1235.5M1235.5 37.5V56.5M1235.5 37.5H1137.5M1137.5 37.5V56.5M1137.5 37.5H1128.5M1128.5 37.5V21.5M1128.5 37.5H1092.5M1040.5 37.5V56.5M1040.5 37.5H997M1040.5 37.5V21.5M1040.5 37.5H1066M997 37.5V21.5M997 37.5H977M1066 37.5V21.5M1066 37.5H1092.5M1092.5 37.5V21.5M902 37.5V21.5M902 37.5H864M902 37.5H977M864 37.5V80.5M864 37.5H789M789 37.5V56.5M789 37.5H702.5M702.5 37.5V21.5M702.5 37.5H699M699 37.5V56.5M699 37.5H650M650 37.5V21.5M650 37.5H640M640 37.5V56.5M640 37.5H565.5M565.5 37.5V21.5M565.5 37.5H558M558 37.5V56.5M558 37.5H479M479 37.5V21.5M479 37.5V56.5M479 37.5H404.5M404.5 37.5V3M404.5 37.5H370.5M349.5 3V23.5M370.5 37.5H349.5V23.5M370.5 37.5V56.5M977 37.5V56.5M349.5 23.5H301L221.5 55.1148M221.5 55.1148L233.5 82M221.5 55.1148L135.5 89.3145M135.5 89.3145L0.5 143V173M135.5 89.3145L146 115" stroke="black"/>
</svg>
