<svg width="1241" height="79" viewBox="0 0 1241 79" fill="none" xmlns="http://www.w3.org/2000/svg">
<path d="M1240.5 38.5V0M1240.5 38.5H1179M1240.5 38.5V56M219.5 38.5V23M219.5 38.5H224M219.5 38.5H131.5M284 38.5V23M284 38.5H318.5M284 38.5H224M441.5 38.5V54.5M441.5 38.5H517.5M441.5 38.5H318.5M548.5 38.5V23M548.5 38.5H517.5M548.5 38.5H610.5M517.5 38.5V79M610.5 38.5V56M610.5 38.5H638M638 38.5V22M638 38.5H644.5M644.5 38.5V56M644.5 38.5H771M789 38.5V22M789 38.5H771M789 38.5H812M771 38.5V56M812 38.5V56M812 38.5H864M864 38.5V56M864 38.5H947.5M947.5 38.5V56M947.5 38.5H975.75M1048.5 38.5V56M1048.5 38.5H1004M1048.5 38.5H1144.5M1004 38.5H975.75M1004 38.5V13.5M1004 6.5V13.5M975.75 38.5V13.5M975.75 13.5H952V6.5M975.75 13.5H1004M1144.5 38.5V56M1144.5 38.5H1179M1179 38.5V0M318.5 38.5V54.5M224 38.5V54.5M131.5 38.5V23M131.5 38.5H59M21.5 38.5V54.5M21.5 38.5H59M21.5 38.5H0.5V1.5M59 38.5V1.5" stroke="black"/>
</svg>
