<svg width="1241" height="81" viewBox="0 0 1241 81" fill="none" xmlns="http://www.w3.org/2000/svg">
<path d="M1240.5 38V0V58V38ZM1240.5 38H1178M1178 38V0M1178 38H1144.5M1144.5 38H1048M1144.5 38V58M1144.5 38H1005M1048 38V58M1048 38H1005M1005 38V15M1005 38H948M1005 7.5V15M1005 15H953V7.5M948 38V58M948 38H865M865 38V58M865 38H812.5M812.5 38V58M812.5 38H789.5M789.5 38V23.5M789.5 38H771M771 38V58M771 38H644M637 38V23.5M637 38H644M637 38H610M644 38V58M644 38H610M610 38V58M610 38H547M547 38V23.5M547 38H517.5M517.5 38V80.5M517.5 38H442.5M442.5 38V55.5M442.5 38H318M318 38V58.5M318 38H282M282 38V23.5M282 38H224.5M218 38V23.5M218 38H224.5M218 38H131.5M224.5 38V55.5M224.5 38H131.5M131.5 38V23.5M131.5 38H58M58 38V2.5M58 38H21.5M0.5 2.5V38H21.5M21.5 38V55.5" stroke="blue"/>
</svg>
